<?xml version="1.0" encoding="utf-8"?>
<!-- Generator: Adobe Illustrator 23.0.1, SVG Export Plug-In . SVG Version: 6.00 Build 0)  -->
<svg version="1.1" xmlns="http://www.w3.org/2000/svg" xmlns:xlink="http://www.w3.org/1999/xlink" x="0px" y="0px"
	 viewBox="0 0 500 500" style="enable-background:new 0 0 500 500;" xml:space="preserve">
<style type="text/css">
	.st0{fill:#F5F5F5;}
	.st1{fill:#E6E6E6;}
	.st2{fill:#37474F;}
	.st3{fill:#455A64;}
	.st4{fill:#27DEBF;}
	.st5{opacity:0.6;}
	.st6{opacity:0.5;}
	.st7{opacity:0.4;}
	.st8{opacity:0.15;}
	.st9{fill:#263238;}
	.st10{fill:#E0E0E0;}
	.st11{fill:#EBEBEB;}
	.st12{fill:#FFFFFF;}
	.st13{opacity:0.5;fill:#FFFFFF;}
	.st14{opacity:0.9;fill:#263238;}
	.st15{opacity:0.6;fill:#FFFFFF;}
	.st16{opacity:0.8;fill:#FFFFFF;}
	.st17{opacity:0.8;}
	.st18{opacity:0.9;}
	.st19{opacity:0.6;fill:#27DEBF;}
	.st20{opacity:0.7;}
	.st21{opacity:0.3;}
	.st22{opacity:0.25;}
	.st23{opacity:0.1;}
	.st24{fill:#FFA8A7;}
	.st25{fill:#FAFAFA;}
	.st26{fill:#F28F8F;}
	.st27{fill:none;stroke:#263238;stroke-width:1.207;stroke-miterlimit:10;}
	.st28{fill:none;stroke:#263238;stroke-width:1.027;stroke-miterlimit:10;}
	.st29{opacity:0.75;fill:#FFFFFF;}
	.st30{opacity:0.1;fill:#27DEBF;}
</style>
<g id="Floor">
	<ellipse id="Floor_10_" class="st0" cx="249.86" cy="362.36" rx="224.23" ry="124.15"/>
</g>
<g id="Shadows_1_">
	<path id="Shadow_10_" class="st1" d="M451.69,343.15l-124.99,72.2c-0.93,0.54-2.43,0.54-3.36,0L143.12,311.3
		c-0.93-0.54-0.93-1.4,0-1.94l124.99-72.2c0.93-0.54,2.43-0.54,3.36,0l180.22,104.05C452.62,341.74,452.62,342.61,451.69,343.15z"/>
	<ellipse id="Shadow_9_" class="st1" cx="161.23" cy="412.39" rx="75.08" ry="43.35"/>
	<ellipse id="Shadow_8_" class="st1" cx="252.65" cy="362.13" rx="59.1" ry="34.12"/>
	<ellipse id="Shadow_5_" class="st1" cx="384.09" cy="407.87" rx="37.1" ry="21.42"/>
</g>
<g id="Desk_1_">
	<g id="Desk">
		<g id="Table_2_">
			<g id="XMLID_3957_">
				<path id="XMLID_3960_" class="st2" d="M329.42,286.36v110.94c0,0.71-0.5,1.58-1.12,1.94l-2.38,1.37c-0.62,0.36-1.62,0.36-2.24,0
					l-2.38-1.37c-0.62-0.36-1.12-1.23-1.12-1.94V286.36c0-0.71,0.5-1,1.12-0.65l2.38,1.37c0.62,0.36,1.62,0.36,2.24,0l2.38-1.37
					C328.92,285.36,329.42,285.65,329.42,286.36z"/>
				<path id="XMLID_3959_" class="st3" d="M323.68,400.62l-2.38-1.37c-0.62-0.36-1.12-1.23-1.12-1.94V286.36c0-0.71,0.5-1,1.12-0.65
					l2.38,1.37c0.62,0.36,1.12,1.22,1.12,1.94l0,110.94C324.8,400.69,324.3,400.98,323.68,400.62z"/>
			</g>
			<g id="XMLID_3954_">
				<path id="XMLID_3956_" class="st2" d="M430.93,227.72v110.94c0,0.71-0.5,1.58-1.12,1.94l-2.38,1.37c-0.62,0.36-1.62,0.36-2.24,0
					l-2.38-1.37c-0.62-0.36-1.12-1.23-1.12-1.94V227.72c0-0.71,0.5-1,1.12-0.65l2.38,1.37c0.62,0.36,1.62,0.36,2.24,0l2.38-1.37
					C430.43,226.72,430.93,227.01,430.93,227.72z"/>
				<path id="XMLID_3955_" class="st3" d="M425.19,341.98l-2.38-1.37c-0.62-0.36-1.12-1.23-1.12-1.94V227.72c0-0.71,0.5-1,1.12-0.65
					l2.38,1.37c0.62,0.36,1.12,1.23,1.12,1.94l0,110.94C426.31,342.04,425.81,342.33,425.19,341.98z"/>
			</g>
			<g id="XMLID_3951_">
				<path id="XMLID_3953_" class="st2" d="M192.71,207.47v110.94c0,0.71-0.5,1.58-1.12,1.94l-2.38,1.37c-0.62,0.36-1.62,0.36-2.24,0
					l-2.38-1.37c-0.62-0.36-1.12-1.23-1.12-1.94V207.47c0-0.71,0.5-1,1.12-0.65l2.38,1.37c0.62,0.36,1.62,0.36,2.24,0l2.38-1.37
					C192.21,206.47,192.71,206.76,192.71,207.47z"/>
				<path id="XMLID_3952_" class="st3" d="M186.97,321.73l-2.38-1.37c-0.62-0.36-1.12-1.23-1.12-1.94V207.47c0-0.71,0.5-1,1.12-0.65
					l2.38,1.37c0.62,0.36,1.12,1.22,1.12,1.94l0,110.94C188.09,321.8,187.59,322.09,186.97,321.73z"/>
			</g>
			<g id="XMLID_3938_">
				<g id="XMLID_3949_">
					<path id="XMLID_3950_" class="st4" d="M453.02,235.61v-0.81c0-1.3-0.91-2.88-2.04-3.53L271.97,128.02
						c-1.13-0.65-2.95-0.65-4.08,0l-110.13,63.6c-1.13,0.65-2.04,2.23-2.04,3.53v0.81c0,1.3,0.91,2.88,2.04,3.53l179.02,103.25
						c1.13,0.65,2.95,0.65,4.08,0l110.13-63.6C452.11,238.49,453.02,236.91,453.02,235.61z"/>
					<path id="XMLID_339_" class="st5" d="M453.02,235.61v-0.81c0-1.3-0.91-2.88-2.04-3.53L271.97,128.02
						c-1.13-0.65-2.95-0.65-4.08,0l-110.13,63.6c-1.13,0.65-2.04,2.23-2.04,3.53v0.81c0,1.3,0.91,2.88,2.04,3.53l179.02,103.25
						c1.13,0.65,2.95,0.65,4.08,0l110.13-63.6C452.11,238.49,453.02,236.91,453.02,235.61z"/>
				</g>
				<g id="XMLID_3947_">
					<path id="XMLID_3948_" class="st4" d="M338.82,297.72v5.52c0.74,0,1.47-0.17,2.04-0.49l110.12-63.61
						c1.13-0.66,2.04-2.23,2.04-3.53v-0.82c0-1.15-0.71-2.53-1.66-3.26c0.74,0.63,0.61,1.51-0.38,2.09l-110.12,63.61
						C340.29,297.56,339.56,297.72,338.82,297.72z"/>
					<path id="XMLID_3946_" class="st6" d="M338.82,297.72v5.52c0.74,0,1.47-0.17,2.04-0.49l110.12-63.61
						c1.13-0.66,2.04-2.23,2.04-3.53v-0.82c0-1.15-0.71-2.53-1.66-3.26c0.74,0.63,0.61,1.51-0.38,2.09l-110.12,63.61
						C340.29,297.56,339.56,297.72,338.82,297.72z"/>
				</g>
				<g>
					<path id="XMLID_3942_" class="st4" d="M450.98,233.62l-110.13,63.6c-1.13,0.65-2.95,0.65-4.08,0L157.77,193.97
						c-1.13-0.65-1.13-1.7,0-2.35l110.13-63.6c1.13-0.65,2.95-0.65,4.08,0l179.02,103.25C452.11,231.92,452.11,232.97,450.98,233.62
						z"/>
					<path id="XMLID_337_" class="st7" d="M450.98,233.62l-110.13,63.6c-1.13,0.65-2.95,0.65-4.08,0L157.77,193.97
						c-1.13-0.65-1.13-1.7,0-2.35l110.13-63.6c1.13-0.65,2.95-0.65,4.08,0l179.02,103.25C452.11,231.92,452.11,232.97,450.98,233.62
						z"/>
				</g>
			</g>
		</g>
		<g id="Keyboard_1_">
			<path id="Shadow_30_" class="st8" d="M325.29,232.24l-26.09,15.11c-0.81,0.47-2.12,0.47-2.92,0l-77.08-44.44
				c-0.81-0.47-0.81-1.22,0-1.69l26.09-15.11c0.81-0.47,2.12-0.47,2.92,0l77.08,44.44C326.1,231.01,326.1,231.77,325.29,232.24z"/>
			<g id="Keyboard_4_">
				<g id="XMLID_3931_">
					<path id="XMLID_3936_" class="st9" d="M220.77,198.53c0-0.31,0.2-0.61,0.61-0.84l24.51-14.15c0.81-0.47,2.12-0.47,2.92,0
						l74.8,43.25c0.4,0.23,0.6,0.54,0.6,0.84c0,0.31,0,2.27,0,2.57c0,0.31-0.2,0.61-0.61,0.84l-24.5,14.15
						c-0.81,0.46-2.12,0.46-2.93,0l-74.8-43.19c-0.4-0.23-0.6-0.54-0.61-0.84C220.77,200.87,220.77,198.84,220.77,198.53z"/>
					<path id="XMLID_3935_" class="st2" d="M299.11,242.57l24.5-14.08c0.81-0.46,0.81-1.22,0-1.69l-74.8-43.25
						c-0.81-0.47-2.12-0.47-2.92,0l-24.51,14.15c-0.81,0.47-0.81,1.22,0,1.69l74.8,43.19C296.99,243.03,298.3,243.03,299.11,242.57z
						"/>
					<path id="XMLID_3933_" class="st9" d="M297.74,242.91v2.63c0.5-0.01,0.99-0.12,1.37-0.34l24.49-14.15
						c0.4-0.24,0.61-0.54,0.61-0.84v-2.58c0,0.3-0.2,0.61-0.61,0.84l-24.49,14.09C298.73,242.78,298.23,242.9,297.74,242.91z"/>
				</g>
				<path id="XMLID_3768_" class="st4" d="M225.31,198.72c0-0.02,0.01-0.03,0.02-0.03l2.43-1.4l3.29,1.9l-2.44,1.45l-3.29-1.9
					L225.31,198.72z M229.11,196.53c0-0.02,0.01-0.03,0.02-0.03l2.43-1.4l2.59,1.49l-2.44,1.45l-2.58-1.49L229.11,196.53z
					 M229.91,201.38c0-0.02,0.01-0.03,0.02-0.03l2.43-1.4l2.58,1.49l-2.44,1.45l-2.58-1.49L229.91,201.38z M232.91,194.34
					c0-0.02,0.01-0.03,0.02-0.03l2.43-1.4l4.18,2.41l-2.44,1.45l-4.17-2.41L232.91,194.34z M233,198.78c0-0.02,0.01-0.03,0.02-0.03
					l2.43-1.4l2.05,1.19l-2.44,1.45l-2.05-1.18L233,198.78z M233.8,203.62c0-0.02,0.01-0.03,0.02-0.03l2.43-1.4l2.59,1.49
					l-2.44,1.45l-2.58-1.49L233.8,203.62z M236.36,200.72c0-0.02,0.01-0.03,0.02-0.03l2.43-1.4l2.05,1.19l-2.44,1.45l-2.05-1.18
					L236.36,200.72z M236.7,192.14c0-0.02,0.01-0.03,0.02-0.03l2.43-1.4l3.29,1.9l-2.44,1.45l-3.29-1.9L236.7,192.14z
					 M237.69,205.87c0-0.02,0.01-0.03,0.02-0.03l2.43-1.4l18.68,10.78l-2.44,1.45l-18.67-10.78L237.69,205.87z M238.39,197.5
					c0-0.02,0.01-0.03,0.02-0.03l2.43-1.4l2.05,1.19l-2.44,1.45l-2.05-1.18L238.39,197.5z M239.72,202.66
					c0-0.02,0.01-0.03,0.02-0.03l2.43-1.4l2.05,1.19l-2.44,1.45l-2.05-1.18L239.72,202.66z M240.5,189.95
					c0-0.02,0.01-0.03,0.02-0.03l2.43-1.4l2.05,1.19l-2.44,1.45l-2.05-1.18L240.5,189.95z M241.3,194.8c0-0.02,0.01-0.03,0.02-0.03
					l2.43-1.4l2.05,1.19l-2.44,1.45l-2.05-1.18L241.3,194.8z M241.75,199.44c0-0.02,0.01-0.03,0.02-0.03l2.43-1.4l2.05,1.19
					l-2.44,1.45l-2.05-1.18L241.75,199.44z M243.08,204.6c0-0.02,0.01-0.03,0.02-0.03l2.43-1.4l2.05,1.19l-2.44,1.45l-2.05-1.18
					L243.08,204.6z M243.86,191.89c0-0.02,0.01-0.03,0.02-0.03l2.43-1.4l2.05,1.19l-2.44,1.45l-2.05-1.18L243.86,191.89z
					 M244.66,196.74c0-0.02,0.01-0.03,0.02-0.03l2.43-1.4l2.05,1.19l-2.44,1.45l-2.05-1.18L244.66,196.74z M245.11,201.38
					c0-0.02,0.01-0.03,0.02-0.03l2.43-1.4l2.05,1.19l-2.44,1.45l-2.05-1.18L245.11,201.38z M245.11,187.29
					c0-0.02,0.01-0.03,0.02-0.03l2.43-1.4l2.58,1.49l-2.44,1.45l-2.58-1.49L245.11,187.29z M246.44,206.54
					c0-0.02,0.01-0.03,0.02-0.03l2.43-1.4l2.05,1.19l-2.44,1.45l-2.05-1.18L246.44,206.54z M247.22,193.83
					c0-0.02,0.01-0.03,0.02-0.03l2.43-1.4l2.05,1.19l-2.44,1.45l-2.05-1.18L247.22,193.83z M248.02,198.68
					c0-0.02,0.01-0.03,0.02-0.03l2.43-1.4l2.05,1.19l-2.44,1.45l-2.05-1.18L248.02,198.68z M248.47,203.32
					c0-0.02,0.01-0.03,0.02-0.03l2.43-1.4l2.05,1.19l-2.44,1.45l-2.05-1.18L248.47,203.32z M249.8,208.48
					c0-0.02,0.01-0.03,0.02-0.03l2.43-1.4l2.05,1.19l-2.44,1.45l-2.05-1.18L249.8,208.48z M250.46,190.38
					c0-0.02,0.01-0.03,0.02-0.03l2.43-1.4l2.05,1.19l-2.44,1.45l-2.05-1.18L250.46,190.38z M250.58,195.77
					c0-0.02,0.01-0.03,0.02-0.03l2.43-1.4l2.05,1.19l-2.44,1.45l-2.05-1.18L250.58,195.77z M251.38,200.62
					c0-0.02,0.01-0.03,0.02-0.03l2.43-1.4l2.05,1.19l-2.44,1.45l-2.05-1.18L251.38,200.62z M251.83,205.26
					c0-0.02,0.01-0.03,0.02-0.03l2.43-1.4l2.05,1.19l-2.44,1.45l-2.05-1.18L251.83,205.26z M253.16,210.42
					c0-0.02,0.01-0.03,0.02-0.03l2.43-1.4l2.05,1.19l-2.44,1.45l-2.05-1.18L253.16,210.42z M253.82,192.32
					c0-0.02,0.01-0.03,0.02-0.03l2.43-1.4l2.05,1.19l-2.44,1.45l-2.05-1.18L253.82,192.32z M253.94,197.71
					c0-0.02,0.01-0.03,0.02-0.03l2.43-1.4l2.05,1.19l-2.44,1.45l-2.05-1.18L253.94,197.71z M254.74,202.56
					c0-0.02,0.01-0.03,0.02-0.03l2.43-1.4l2.05,1.19l-2.44,1.45l-2.05-1.18L254.74,202.56z M255.19,207.2
					c0-0.02,0.01-0.03,0.02-0.03l2.43-1.4l2.05,1.19l-2.44,1.45l-2.05-1.18L255.19,207.2z M256.52,212.36
					c0-0.02,0.01-0.03,0.02-0.03l2.43-1.4l2.05,1.19l-2.44,1.45l-2.05-1.18L256.52,212.36z M257.18,194.26
					c0-0.02,0.01-0.03,0.02-0.03l2.43-1.4l2.05,1.19l-2.44,1.45l-2.05-1.18L257.18,194.26z M257.3,199.65
					c0-0.02,0.01-0.03,0.02-0.03l2.43-1.4l2.05,1.19l-2.44,1.45l-2.05-1.18L257.3,199.65z M257.67,217.41
					c0-0.02,0.01-0.03,0.02-0.03l2.43-1.4l2.58,1.49l-2.44,1.45l-2.58-1.49L257.67,217.41z M258.1,204.5c0-0.02,0.01-0.03,0.02-0.03
					l2.43-1.4l2.05,1.19l-2.44,1.45l-2.05-1.18L258.1,204.5z M258.55,209.14c0-0.02,0.01-0.03,0.02-0.03l2.43-1.4l2.05,1.19
					l-2.44,1.45l-2.05-1.18L258.55,209.14z M259.88,214.3c0-0.02,0.01-0.03,0.02-0.03l2.43-1.4l2.05,1.19l-2.44,1.45l-2.05-1.18
					L259.88,214.3z M260.54,196.2c0-0.02,0.01-0.03,0.02-0.03l2.43-1.4l2.05,1.19l-2.44,1.45l-2.05-1.18L260.54,196.2z
					 M260.66,201.59c0-0.02,0.01-0.03,0.02-0.03l2.43-1.4l2.05,1.19l-2.44,1.45l-2.05-1.18L260.66,201.59z M261.46,206.44
					c0-0.02,0.01-0.03,0.02-0.03l2.43-1.4l2.05,1.19l-2.44,1.45l-2.05-1.18L261.46,206.44z M261.56,219.65
					c0-0.02,0.01-0.03,0.02-0.03l2.43-1.4l2.58,1.49l-2.44,1.45l-2.58-1.49L261.56,219.65z M261.91,211.08
					c0-0.02,0.01-0.03,0.02-0.03l2.43-1.4l2.05,1.19l-2.44,1.45l-2.05-1.18L261.91,211.08z M263.24,216.24
					c0-0.02,0.01-0.03,0.02-0.03l2.43-1.4l2.05,1.19l-2.44,1.45l-2.05-1.18L263.24,216.24z M264.02,203.53
					c0-0.02,0.01-0.03,0.02-0.03l2.43-1.4l2.05,1.19l-2.44,1.45l-2.05-1.18L264.02,203.53z M264.82,208.38
					c0-0.02,0.01-0.03,0.02-0.03l2.43-1.4l2.05,1.19l-2.44,1.45l-2.05-1.18L264.82,208.38z M265.27,213.02
					c0-0.02,0.01-0.03,0.02-0.03l2.43-1.4l2.05,1.19l-2.44,1.45l-2.05-1.18L265.27,213.02z M265.37,198.99
					c0-0.02,0.01-0.03,0.02-0.03l2.43-1.4l2.05,1.19l-2.44,1.45l-2.05-1.18L265.37,198.99z M265.45,221.9
					c0-0.02,0.01-0.03,0.02-0.03l2.43-1.4l2.59,1.49l-2.44,1.45l-2.58-1.49L265.45,221.9z M266.6,218.18c0-0.02,0.01-0.03,0.02-0.03
					l2.43-1.4l2.05,1.19l-2.44,1.45l-2.05-1.18L266.6,218.18z M267.38,205.47c0-0.02,0.02-0.03,0.02-0.03l2.42-1.4l2.05,1.18
					l-2.44,1.45l-2.05-1.18L267.38,205.47z M268.18,210.32c0-0.02,0.01-0.03,0.02-0.03l2.43-1.4l2.05,1.19l-2.44,1.45l-2.05-1.18
					L268.18,210.32z M268.63,214.96c0-0.02,0.01-0.03,0.02-0.03l2.43-1.4l2.05,1.19l-2.44,1.45l-2.05-1.18L268.63,214.96z
					 M268.73,200.93c0-0.02,0.01-0.03,0.02-0.03l2.43-1.4l2.05,1.19l-2.44,1.45l-2.05-1.18L268.73,200.93z M269.35,224.15
					c0-0.02,0.01-0.03,0.02-0.03l2.43-1.4l3.29,1.9l-2.44,1.45l-3.29-1.9L269.35,224.15z M269.96,220.12c0-0.02,0.01-0.03,0.02-0.03
					l2.43-1.4l6.47,3.74l-2.44,1.45l-6.47-3.74L269.96,220.12z M270.74,207.41c0-0.02,0.01-0.03,0.02-0.03l2.43-1.4l2.05,1.19
					l-2.44,1.45l-2.05-1.18L270.74,207.41z M271.54,212.26c0-0.02,0.01-0.03,0.02-0.03l2.43-1.4l2.05,1.19l-2.44,1.45l-2.05-1.18
					L271.54,212.26z M271.99,216.9c0-0.02,0.01-0.03,0.02-0.03l2.43-1.4l2.05,1.19l-2.44,1.45l-2.05-1.18L271.99,216.9z
					 M272.09,202.87c0-0.02,0.01-0.03,0.02-0.03l2.43-1.4l2.05,1.19l-2.44,1.45l-2.05-1.18L272.09,202.87z M274.1,209.35
					c0-0.02,0.01-0.03,0.02-0.03l2.43-1.4l2.05,1.19l-2.44,1.45l-2.05-1.18L274.1,209.35z M274.65,227.21
					c0-0.02,0.01-0.03,0.02-0.03l2.43-1.4l2.05,1.19l-2.44,1.45l-2.05-1.18L274.65,227.21z M274.9,214.2c0-0.02,0.01-0.03,0.02-0.03
					l2.43-1.4l2.05,1.19l-2.44,1.45l-2.05-1.18L274.9,214.2z M275.35,218.84c0-0.02,0.01-0.03,0.02-0.03l2.43-1.4l1.88,1.08
					c0.13,0.08,0.35,0.12,0.59,0.12c0.25,0,0.48-0.05,0.62-0.13l3.19-1.84l2.41,1.39l-6.24,3.64l-4.88-2.82L275.35,218.84z
					 M275.45,204.8c0-0.02,0.01-0.03,0.02-0.03l2.43-1.4l2.05,1.19l-2.44,1.45l-2.05-1.18L275.45,204.8z M277.46,211.29
					c0-0.02,0.01-0.03,0.02-0.03l2.43-1.4l2.05,1.19l-2.44,1.45l-2.05-1.18L277.46,211.29z M278.01,229.15
					c0-0.02,0.01-0.03,0.02-0.03l2.43-1.4l2.05,1.19l-2.44,1.45l-2.05-1.18L278.01,229.15z M278.26,216.14
					c0-0.02,0.01-0.03,0.02-0.03l2.43-1.4l2.05,1.19l-2.44,1.45l-2.05-1.18L278.26,216.14z M280.27,207.59
					c0-0.02,0.01-0.03,0.02-0.03l2.43-1.4l2.05,1.19l-2.44,1.45l-2.05-1.18L280.27,207.59z M280.82,213.23
					c0-0.02,0.01-0.03,0.02-0.03l2.43-1.4l2.05,1.19l-2.44,1.45l-2.05-1.18L280.82,213.23z M281.37,231.09
					c0-0.02,0.01-0.03,0.02-0.03l2.43-1.4l2.05,1.19l-2.44,1.45l-2.05-1.18L281.37,231.09z M281.81,226.96
					c0-0.02,0.01-0.03,0.02-0.03l2.43-1.4l2.05,1.19l-2.44,1.45l-2.05-1.18L281.81,226.96z M283.63,209.53
					c0-0.02,0.01-0.03,0.02-0.03l2.43-1.4l2.05,1.19l-2.44,1.45l-2.05-1.18L283.63,209.53z M284.18,215.17
					c0-0.02,0.01-0.03,0.02-0.03l2.43-1.4l3.65,2.1l-2.44,1.45l-3.64-2.1L284.18,215.17z M285.44,233.44c0-0.02,0.01-0.03,0.02-0.03
					l2.43-1.4l5.41,3.13l-2.44,1.45l-5.41-3.12L285.44,233.44z M286.04,220.63c0-0.02,0.01-0.03,0.02-0.03l2.43-1.4l2.05,1.19
					l-2.44,1.45l-2.05-1.18L286.04,220.63z M286.99,211.47c0-0.02,0.01-0.03,0.02-0.03l2.43-1.4l2.05,1.19l-2.44,1.45l-2.05-1.18
					L286.99,211.47z M289.24,231.25c0-0.02,0.01-0.03,0.02-0.03l2.43-1.4l2.05,1.19l-2.44,1.45l-2.05-1.18L289.24,231.25z
					 M289.4,222.57c0-0.02,0.01-0.03,0.02-0.03l2.43-1.4l2.05,1.18l-2.44,1.45l-2.05-1.18L289.4,222.57z M289.84,218.44
					c0-0.02,0.01-0.03,0.02-0.03l2.43-1.4l2.05,1.19l-2.44,1.45l-2.05-1.18L289.84,218.44z M290.35,213.41
					c0-0.02,0.01-0.03,0.02-0.03l2.43-1.4l2.05,1.19l-2.44,1.45l-2.05-1.18L290.35,213.41z M292.16,237.32
					c0-0.02,0.01-0.03,0.02-0.03l2.43-1.4l2.05,1.19l-2.44,1.45l-2.05-1.18L292.16,237.32z M292.6,233.19
					c0-0.02,0.01-0.03,0.02-0.03l2.43-1.4l2.05,1.19l-2.44,1.45l-2.05-1.18L292.6,233.19z M292.77,224.51
					c0-0.02,0.01-0.03,0.02-0.03l2.43-1.4l2.05,1.19l-2.44,1.45l-2.05-1.18L292.77,224.51z M293.04,229.05
					c0-0.02,0.01-0.03,0.02-0.03l2.43-1.4l2.05,1.19l-2.44,1.45l-2.05-1.18L293.04,229.05z M293.2,220.38
					c0-0.02,0.01-0.03,0.02-0.03l2.43-1.4l2.05,1.19l-2.44,1.45l-2.05-1.18L293.2,220.38z M294.45,215.78
					c0-0.02,0.01-0.03,0.02-0.03l2.43-1.4l2.05,1.19l-2.44,1.45l-2.05-1.18L294.45,215.78z M295.52,239.26
					c0-0.02,0.01-0.03,0.02-0.03l6.22-3.59l2.05,1.19l-6.24,3.64l-2.05-1.18L295.52,239.26z M295.96,235.13
					c0-0.02,0.01-0.03,0.02-0.03l2.43-1.4l2.05,1.19l-2.44,1.45l-2.05-1.18L295.96,235.13z M296.4,230.99
					c0-0.02,0.01-0.03,0.02-0.03l2.43-1.4l2.05,1.19l-2.44,1.45l-2.05-1.18L296.4,230.99z M296.56,222.32
					c0-0.02,0.01-0.03,0.02-0.03l2.43-1.4l2.05,1.19l-2.44,1.45l-2.05-1.18L296.56,222.32z M296.83,226.86
					c0-0.02,0.01-0.03,0.02-0.03l2.43-1.4l2.05,1.19l-2.44,1.45l-2.05-1.18L296.83,226.86z M297.81,217.72
					c0-0.02,0.01-0.03,0.02-0.03l2.43-1.4l2.05,1.19l-2.44,1.45l-2.05-1.18L297.81,217.72z M299.76,232.93
					c0-0.02,0.01-0.03,0.02-0.03l2.43-1.4l2.05,1.19l-2.44,1.45l-2.05-1.18L299.76,232.93z M300.19,228.8
					c0-0.02,0.01-0.03,0.02-0.03l2.43-1.4l2.05,1.19l-2.44,1.45l-2.05-1.18L300.19,228.8z M300.63,224.67
					c0-0.02,0.01-0.03,0.02-0.03l2.43-1.4l2.05,1.19l-2.44,1.45l-2.05-1.18L300.63,224.67z M301.17,219.66
					c0-0.02,0.01-0.03,0.02-0.03l2.43-1.4l2.05,1.19l-2.44,1.45l-2.05-1.18L301.17,219.66z M303.12,234.87
					c0-0.02,0.01-0.03,0.02-0.03l6.22-3.59l2.05,1.19l-6.24,3.64l-2.05-1.18L303.12,234.87z M303.55,230.74
					c0-0.02,0.01-0.03,0.02-0.03l2.43-1.4l2.05,1.19l-2.44,1.45l-2.05-1.18L303.55,230.74z M303.99,226.61
					c0-0.02,0.01-0.03,0.02-0.03l2.43-1.4l2.05,1.19l-2.44,1.45l-2.05-1.18L303.99,226.61z M306.22,221.44
					c0-0.02,0.01-0.03,0.02-0.03l1.03-0.61l2.05,1.19l-1.05,0.65l-2.04-1.18L306.22,221.44z M307.35,228.55
					c0-0.02,0.01-0.03,0.02-0.03l2.43-1.4l2.05,1.19l-2.44,1.45l-2.05-1.18L307.35,228.55z M309.58,223.38
					c0-0.02,0.01-0.03,0.02-0.03l1.03-0.61l2.05,1.19l-1.05,0.65l-2.04-1.18L309.58,223.38z M310.71,230.49
					c0-0.02,0.01-0.03,0.02-0.03l2.43-1.4l2.05,1.19l-2.44,1.45l-2.05-1.18L310.71,230.49z M312.94,225.32
					c0-0.02,0.01-0.03,0.02-0.03l1.03-0.61l2.05,1.19l-1.05,0.65l-2.04-1.18L312.94,225.32z M316.29,227.26
					c0-0.02,0.01-0.03,0.02-0.03l1.03-0.61l2.05,1.19l-1.05,0.65l-2.04-1.18L316.29,227.26z"/>
			</g>
		</g>
		<g id="Device">
			<polygon id="Shadow_29_" class="st8" points="385.58,235.17 408.53,221.92 293.77,155.66 270.82,168.91 			"/>
			<g id="Monitor_2_">
				<g id="XMLID_3761_">
					<g id="XMLID_3766_">
						<path id="XMLID_3767_" class="st1" d="M320.59,213.6l-16.39-9.47c-1.69-0.98-2.53-2.25-2.53-3.53c0-1.28-0.01-2.28-0.01-2.28
							l15.42-8.75c0.9-0.52,1.63-1.79,1.63-2.83v-20.2l28.62,16.54l0,20.2c0,1.04-0.73,2.31-1.63,2.83l-12.88,7.5
							C329.45,215.55,323.97,215.55,320.59,213.6z"/>
					</g>
					<path id="XMLID_3765_" class="st10" d="M340.47,206.85v2.27l5.25-3.02c0.89-0.52,1.63-1.78,1.63-2.83v-20.2l-5.45-3.15
						c-0.11,1.38-0.24,2.82-0.35,4.21l3.82,2.21v15.78c0,1.05-0.73,2.31-1.63,2.83L340.47,206.85z"/>
					<path id="XMLID_3764_" class="st0" d="M345.36,202.13c0,1.04-0.73,2.31-1.63,2.83l-10.9,6.36c-3.38,1.95-8.86,1.95-12.23,0
						l-16.39-9.47c-3.38-1.95-3.38-5.11,0-7.06l10.91-6.36c0.9-0.52,1.63-1.78,1.63-2.83l0-15.79l28.62,16.54V202.13z"/>
					<path id="XMLID_3763_" class="st11" d="M311.79,190.34L311.79,190.34l3.32-1.92c0.9-0.52,1.63-1.79,1.63-2.83v-15.79
						l28.62,16.54v15.79c0,1.04-0.73,2.31-1.63,2.83l-3.26,1.88L311.79,190.34z"/>
					<path id="XMLID_3762_" class="st11" d="M301.67,198.31c0,0,0,1,0,2.28c0,1.28,0.85,2.55,2.53,3.53l16.39,9.47
						c1.62,0.94,3.72,1.41,5.84,1.45v-2.27c-2.12-0.03-4.22-0.52-5.84-1.45l-16.39-9.48C302.52,200.87,301.67,199.59,301.67,198.31z
						"/>
				</g>
				<path id="XMLID_3760_" class="st3" d="M391.32,223.93c-1.06,0.61-2.83,0.58-3.95-0.07c-14.07-8.12-96.62-55.78-110.69-63.9
					c-1.13-0.65-2.04-2.23-2.04-3.53V59.54c0-1.3,0.86-2.85,1.91-3.46c1.06-0.61,2.83-0.58,3.95,0.07l110.69,63.9
					c1.13,0.65,2.04,2.23,2.04,3.53l0,96.88C393.23,221.77,392.38,223.32,391.32,223.93z"/>
				<path id="XMLID_3758_" class="st2" d="M387.37,223.85l-110.69-63.9c-1.13-0.65-2.04-2.23-2.04-3.53V59.53
					c0-1.3,0.91-1.83,2.04-1.18l110.69,63.9c1.13,0.65,2.04,2.23,2.04,3.53l0,96.88C389.41,223.98,388.49,224.5,387.37,223.85z"/>
				<path id="XMLID_3757_" class="st10" d="M387.67,224.26c1.13,0.5,2.69,0.48,3.65-0.08c1.05-0.61,1.91-2.16,1.91-3.47v-10.9
					l-3.82,2.21v10.9C389.41,224.12,388.66,224.65,387.67,224.26z"/>
				<path id="XMLID_3756_" class="st12" d="M389.41,212.03l0,10.9c0,1.3-0.91,1.83-2.04,1.18l-110.69-63.9
					c-1.13-0.65-2.04-2.23-2.04-3.53v-10.9L389.41,212.03z"/>
				<path id="XMLID_3755_" class="st4" d="M385.58,203.74l0-76.68c0-0.78-0.55-1.73-1.22-2.12L279.69,64.52
					c-0.68-0.39-1.22-0.07-1.22,0.71l0,76.68c0,0.78,0.55,1.73,1.22,2.12l104.67,60.43C385.03,204.84,385.58,204.52,385.58,203.74z"
					/>
				<path id="XMLID_3754_" class="st13" d="M385.58,203.74l0-76.68c0-0.78-0.55-1.73-1.22-2.12L279.69,64.52
					c-0.68-0.39-1.22-0.07-1.22,0.71l0,76.68c0,0.78,0.55,1.73,1.22,2.12l104.67,60.43C385.03,204.84,385.58,204.52,385.58,203.74z"
					/>
				<path id="XMLID_3658_" class="st3" d="M332.03,183.07c1.06,0.61,1.91,2.09,1.91,3.31c0,1.22-0.86,1.71-1.91,1.1
					c-1.06-0.61-1.91-2.09-1.91-3.31C330.11,182.95,330.97,182.46,332.03,183.07z"/>
				<path id="XMLID_3657_" class="st9" d="M388.81,123.78c0.37,0.64,0.59,1.37,0.6,2.02v86.24l3.82-2.21v-86.23
					c0-0.65-0.24-1.37-0.6-2.02L388.81,123.78z"/>
			</g>
		</g>
		<g id="Window_1_">
			<g id="Window_3_">
				<path class="st3" d="M292.75,39.53c0.01-0.06,0.01-0.12,0.03-0.18c-0.01-0.01,0-0.03,0.01-0.04c0.01-0.06,0.03-0.12,0.04-0.17
					c0.03-0.09,0.06-0.17,0.12-0.25c0.01-0.04,0.04-0.07,0.06-0.1c0.02-0.03,0.03-0.05,0.06-0.07c0.04-0.05,0.08-0.09,0.13-0.13
					c0,0,0.01-0.01,0.01-0.01c0.05-0.04,0.11-0.07,0.17-0.1c0.35-0.17,0.81-0.12,1.31,0.17l129.17,74.55
					c1.08,0.62,1.95,2.14,1.95,3.38v93.49c0,0.01,0,0.01,0,0.02v0.43c0,0.53-0.3,0.95-0.7,1.17c-0.03,0.02-0.06,0.04-0.08,0.06
					c-0.03,0.02-0.06,0.04-0.1,0.06c-0.05,0.03-0.11,0.04-0.17,0.06c-0.08,0.02-0.17,0.03-0.25,0.03c-0.2,0.01-0.42-0.06-0.65-0.19
					l-0.05-0.03c0,0,0,0,0,0l-1.86-1.07l-127.26-73.47c-1.08-0.62-1.95-2.13-1.95-3.38V39.78
					C292.74,39.69,292.75,39.61,292.75,39.53z"/>
				<g id="XMLID_3010_">
					<g id="XMLID_3044_">
						<path class="st4" d="M293.38,38.48c0.35-0.17,0.81-0.12,1.31,0.17l129.17,74.55c1.08,0.62,1.95,2.14,1.95,3.38v6.38l2.49-1.46
							v-6.33c0-1.24-0.87-2.75-1.95-3.38L297.18,37.24c-0.56-0.33-1.06-0.33-1.42-0.12C295.42,37.34,293.8,38.26,293.38,38.48z"/>
					</g>
					<path id="XMLID_3036_" class="st4" d="M292.74,39.76c0.01-1.23,0.88-1.73,1.95-1.11l129.17,74.54
						c1.08,0.62,1.95,2.14,1.95,3.38l0,6.38L292.74,46.17V39.76z"/>
					<g id="XMLID_3027_" class="st6">
						<path class="st12" d="M294.69,38.65l129.17,74.55c0.53,0.31,1.02,0.84,1.37,1.45l2.48-1.44c-0.35-0.6-0.83-1.12-1.36-1.42
							L297.19,37.24c-0.56-0.33-1.06-0.33-1.42-0.12c-0.35,0.21-1.97,1.14-2.38,1.36C293.73,38.31,294.19,38.36,294.69,38.65z"/>
					</g>
					<path id="XMLID_3011_" class="st8" d="M428.32,121.5l0-6.34c0-0.63-0.23-1.33-0.59-1.95l-2.49,1.43
						c0.36,0.61,0.58,1.31,0.58,1.94v6.38L428.32,121.5z"/>
				</g>
				<g id="XMLID_3000_">
					<path id="XMLID_3009_" class="st3" d="M421.42,114.54c0.61,0.35,1.1,1.4,1.1,2.33s-0.49,1.41-1.1,1.06
						c-0.61-0.35-1.1-1.4-1.1-2.33C420.32,114.67,420.81,114.19,421.42,114.54z"/>
					<path id="XMLID_3002_" class="st3" d="M417.45,112.25c0.61,0.35,1.1,1.4,1.1,2.33s-0.49,1.41-1.1,1.06
						c-0.61-0.35-1.1-1.4-1.1-2.33C416.35,112.37,416.84,111.9,417.45,112.25z"/>
					<path id="XMLID_3001_" class="st3" d="M413.48,109.95c0.61,0.35,1.1,1.4,1.1,2.33c0,0.94-0.49,1.41-1.1,1.06
						c-0.61-0.35-1.1-1.4-1.1-2.33S412.87,109.6,413.48,109.95z"/>
				</g>
				<path class="st14" d="M425.12,211.69l0.1-0.06l2.06-1.19c0.56-0.32,0.93-0.88,1.02-1.51c0.01-0.1,0.02-0.19,0.02-0.28v-87.15
					l-2.49,1.46v87.55c0,0.49-0.25,0.89-0.61,1.11c-0.02,0.02-0.04,0.03-0.06,0.04c-0.01,0.01-0.01,0.01-0.01,0.01L425.12,211.69z"
					/>
			</g>
			<g id="Code">
				<g>
					<path id="XMLID_2979_" class="st4" d="M332.31,79.44l27.23,15.69c0.38,0.22,0.69,0.74,0.69,1.15c0,0.41-0.31,0.57-0.69,0.35
						l-27.23-15.69c-0.38-0.22-0.69-0.74-0.69-1.15C331.62,79.37,331.93,79.22,332.31,79.44z"/>
					<path id="XMLID_2977_" class="st1" d="M342.72,109.48l10.32,5.94c0.38,0.22,0.69,0.74,0.69,1.15c0,0.41-0.31,0.57-0.69,0.35
						l-10.32-5.94c-0.38-0.22-0.69-0.74-0.69-1.15C342.02,109.42,342.33,109.26,342.72,109.48z"/>
					<path id="XMLID_2971_" class="st1" d="M342.72,115.49l10.32,5.94c0.38,0.22,0.69,0.74,0.69,1.15c0,0.41-0.31,0.57-0.69,0.35
						l-10.32-5.94c-0.38-0.22-0.69-0.74-0.69-1.15C342.02,115.42,342.33,115.27,342.72,115.49z"/>
					<path id="XMLID_2967_" class="st4" d="M362.23,96.68l54.52,31.4c0.38,0.22,0.69,0.74,0.69,1.15c0,0.41-0.31,0.57-0.69,0.35
						l-54.52-31.4c-0.38-0.22-0.69-0.74-0.69-1.15C361.54,96.62,361.85,96.46,362.23,96.68z"/>
					<path id="XMLID_2926_" class="st4" d="M342.94,151.61l16.6,9.61c0.38,0.22,0.69,0.74,0.69,1.15c0,0.41-0.31,0.57-0.69,0.35
						l-16.6-9.61c-0.38-0.22-0.69-0.74-0.69-1.15C342.25,151.55,342.56,151.39,342.94,151.61z"/>
					<path id="XMLID_2925_" class="st4" d="M362.23,162.77l54.52,31.44c0.38,0.22,0.69,0.74,0.69,1.15c0,0.41-0.31,0.57-0.69,0.35
						l-54.52-31.44c-0.38-0.22-0.69-0.74-0.69-1.15C361.54,162.7,361.85,162.55,362.23,162.77z"/>
					<g id="XMLID_2876_">
						<path id="XMLID_2905_" class="st4" d="M332.31,85.46l13.72,7.88c0.38,0.22,0.69,0.74,0.69,1.15c0,0.41-0.31,0.57-0.69,0.35
							l-13.72-7.88c-0.38-0.22-0.69-0.74-0.69-1.15C331.62,85.4,331.93,85.24,332.31,85.46z"/>
						<path id="XMLID_2890_" class="st15" d="M332.31,85.46l13.72,7.88c0.38,0.22,0.69,0.74,0.69,1.15c0,0.41-0.31,0.57-0.69,0.35
							l-13.72-7.88c-0.38-0.22-0.69-0.74-0.69-1.15C331.62,85.4,331.93,85.24,332.31,85.46z"/>
					</g>
					<g id="XMLID_2873_">
						<path id="XMLID_2875_" class="st4" d="M332.31,91.46l6.42,3.7c0.38,0.22,0.69,0.74,0.69,1.15c0,0.41-0.31,0.57-0.69,0.35
							l-6.42-3.7c-0.38-0.22-0.69-0.74-0.69-1.15C331.62,91.39,331.93,91.24,332.31,91.46z"/>
						<path id="XMLID_2874_" class="st15" d="M332.31,91.46l6.42,3.7c0.38,0.22,0.69,0.74,0.69,1.15c0,0.41-0.31,0.57-0.69,0.35
							l-6.42-3.7c-0.38-0.22-0.69-0.74-0.69-1.15C331.62,91.39,331.93,91.24,332.31,91.46z"/>
					</g>
					<g id="XMLID_2867_">
						<path id="XMLID_2869_" class="st4" d="M332.31,103.47l6.42,3.7c0.38,0.22,0.69,0.74,0.69,1.15c0,0.41-0.31,0.57-0.69,0.35
							l-6.42-3.7c-0.38-0.22-0.69-0.74-0.69-1.15C331.62,103.41,331.93,103.25,332.31,103.47z"/>
						<path id="XMLID_2868_" class="st15" d="M332.31,103.47l6.42,3.7c0.38,0.22,0.69,0.74,0.69,1.15c0,0.41-0.31,0.57-0.69,0.35
							l-6.42-3.7c-0.38-0.22-0.69-0.74-0.69-1.15C331.62,103.41,331.93,103.25,332.31,103.47z"/>
					</g>
					<g id="XMLID_2864_">
						<path id="XMLID_2866_" class="st4" d="M332.31,109.48l6.42,3.7c0.38,0.22,0.69,0.74,0.69,1.15s-0.31,0.57-0.69,0.35l-6.42-3.7
							c-0.38-0.22-0.69-0.74-0.69-1.15S331.93,109.26,332.31,109.48z"/>
						<path id="XMLID_2865_" class="st15" d="M332.31,109.48l6.42,3.7c0.38,0.22,0.69,0.74,0.69,1.15s-0.31,0.57-0.69,0.35
							l-6.42-3.7c-0.38-0.22-0.69-0.74-0.69-1.15S331.93,109.26,332.31,109.48z"/>
					</g>
					<g id="XMLID_2855_">
						<path id="XMLID_2863_" class="st4" d="M348.72,94.89l8.23,4.77c0.38,0.22,0.69,0.74,0.69,1.15c0,0.41-0.31,0.57-0.69,0.35
							l-8.23-4.76c-0.38-0.22-0.69-0.74-0.69-1.15C348.02,94.83,348.33,94.67,348.72,94.89z"/>
						<path id="XMLID_2862_" class="st15" d="M348.72,94.89l8.23,4.77c0.38,0.22,0.69,0.74,0.69,1.15c0,0.41-0.31,0.57-0.69,0.35
							l-8.23-4.76c-0.38-0.22-0.69-0.74-0.69-1.15C348.02,94.83,348.33,94.67,348.72,94.89z"/>
					</g>
					<g id="XMLID_2853_">
						<path id="XMLID_2854_" class="st12" d="M361.44,138.33l55.32,31.85c0.38,0.22,0.69,0.74,0.69,1.15c0,0.41-0.31,0.57-0.69,0.35
							l-55.32-31.85c-0.38-0.22-0.69-0.74-0.69-1.15C360.74,138.26,361.05,138.11,361.44,138.33z"/>
					</g>
					<g id="XMLID_2851_">
						<path id="XMLID_2852_" class="st12" d="M408.53,159.4l8.23,4.77c0.38,0.22,0.69,0.74,0.69,1.15s-0.31,0.57-0.69,0.35
							l-8.23-4.76c-0.38-0.22-0.69-0.74-0.69-1.15C407.84,159.33,408.15,159.17,408.53,159.4z"/>
					</g>
					<g id="XMLID_2849_">
						<path id="XMLID_2850_" class="st12" d="M350.52,125.99l55.32,31.85c0.38,0.22,0.69,0.74,0.69,1.15s-0.31,0.57-0.69,0.35
							l-55.32-31.85c-0.38-0.22-0.69-0.74-0.69-1.15C349.83,125.93,350.14,125.77,350.52,125.99z"/>
					</g>
					<g id="XMLID_2846_">
						<path id="XMLID_2848_" class="st4" d="M342.72,97.47l13.72,7.88c0.38,0.22,0.69,0.74,0.69,1.15c0,0.41-0.31,0.57-0.69,0.35
							l-13.72-7.88c-0.38-0.22-0.69-0.74-0.69-1.15C342.02,97.4,342.33,97.24,342.72,97.47z"/>
						<path id="XMLID_2847_" class="st15" d="M342.72,97.47l13.72,7.88c0.38,0.22,0.69,0.74,0.69,1.15c0,0.41-0.31,0.57-0.69,0.35
							l-13.72-7.88c-0.38-0.22-0.69-0.74-0.69-1.15C342.02,97.4,342.33,97.24,342.72,97.47z"/>
					</g>
					<g id="XMLID_2823_">
						<path id="XMLID_2845_" class="st4" d="M359.12,106.9L416.35,140c0.38,0.22,0.69,0.74,0.69,1.15c0,0.41-0.31,0.57-0.69,0.35
							l-57.23-33.1c-0.38-0.22-0.69-0.74-0.69-1.15C358.43,106.83,358.74,106.68,359.12,106.9z"/>
						<path id="XMLID_2839_" class="st15" d="M359.12,106.9L416.35,140c0.38,0.22,0.69,0.74,0.69,1.15c0,0.41-0.31,0.57-0.69,0.35
							l-57.23-33.1c-0.38-0.22-0.69-0.74-0.69-1.15C358.43,106.83,358.74,106.68,359.12,106.9z"/>
					</g>
					<path id="XMLID_2978_" class="st1" d="M342.72,133.64l74.04,42.7c0.38,0.22,0.69,0.74,0.69,1.15s-0.31,0.57-0.69,0.35
						l-74.04-42.7c-0.38-0.22-0.69-0.74-0.69-1.15C342.02,133.57,342.33,133.42,342.72,133.64z"/>
					<g id="XMLID_2870_">
						<path id="XMLID_2872_" class="st4" d="M332.31,127.63l6.42,3.7c0.38,0.22,0.69,0.74,0.69,1.15c0,0.41-0.31,0.57-0.69,0.35
							l-6.42-3.7c-0.38-0.22-0.69-0.74-0.69-1.15C331.62,127.57,331.93,127.41,332.31,127.63z"/>
						<path id="XMLID_2871_" class="st15" d="M332.31,127.63l6.42,3.7c0.38,0.22,0.69,0.74,0.69,1.15c0,0.41-0.31,0.57-0.69,0.35
							l-6.42-3.7c-0.38-0.22-0.69-0.74-0.69-1.15C331.62,127.57,331.93,127.41,332.31,127.63z"/>
					</g>
					<path id="XMLID_2986_" class="st1" d="M342.72,139.64l74.04,42.7c0.38,0.22,0.69,0.74,0.69,1.15c0,0.41-0.31,0.57-0.69,0.35
						l-74.04-42.7c-0.38-0.22-0.69-0.74-0.69-1.15C342.02,139.58,342.33,139.42,342.72,139.64z"/>
					<g id="XMLID_2981_">
						<path id="XMLID_2984_" class="st4" d="M332.31,133.64l6.42,3.7c0.38,0.22,0.69,0.74,0.69,1.15c0,0.41-0.31,0.57-0.69,0.35
							l-6.42-3.7c-0.38-0.22-0.69-0.74-0.69-1.15C331.62,133.57,331.93,133.42,332.31,133.64z"/>
						<path id="XMLID_2983_" class="st15" d="M332.31,133.64l6.42,3.7c0.38,0.22,0.69,0.74,0.69,1.15c0,0.41-0.31,0.57-0.69,0.35
							l-6.42-3.7c-0.38-0.22-0.69-0.74-0.69-1.15C331.62,133.57,331.93,133.42,332.31,133.64z"/>
					</g>
					<path id="XMLID_2994_" class="st1" d="M342.72,145.65l74.04,42.7c0.38,0.22,0.69,0.74,0.69,1.15s-0.31,0.57-0.69,0.35
						l-74.04-42.7c-0.38-0.22-0.69-0.74-0.69-1.15C342.02,145.58,342.33,145.43,342.72,145.65z"/>
					<g id="XMLID_2991_">
						<path id="XMLID_2993_" class="st4" d="M332.31,139.64l6.42,3.7c0.38,0.22,0.69,0.74,0.69,1.15c0,0.41-0.31,0.57-0.69,0.35
							l-6.42-3.7c-0.38-0.22-0.69-0.74-0.69-1.15C331.62,139.58,331.93,139.42,332.31,139.64z"/>
						<path id="XMLID_2992_" class="st15" d="M332.31,139.64l6.42,3.7c0.38,0.22,0.69,0.74,0.69,1.15c0,0.41-0.31,0.57-0.69,0.35
							l-6.42-3.7c-0.38-0.22-0.69-0.74-0.69-1.15C331.62,139.58,331.93,139.42,332.31,139.64z"/>
					</g>
				</g>
				<g class="st5">
					<path class="st12" d="M322.31,73.41l3.77,2.18c0.38,0.22,0.69,0.75,0.69,1.19v1.39c0,0.44-0.31,0.61-0.69,0.4l-3.77-2.18
						c-0.38-0.22-0.69-0.75-0.69-1.19l0-1.39C321.62,73.37,321.93,73.2,322.31,73.41z"/>
					<path class="st12" d="M322.31,79.48l3.77,2.18c0.38,0.22,0.69,0.75,0.69,1.19v1.39c0,0.44-0.31,0.61-0.69,0.4l-3.77-2.18
						c-0.38-0.22-0.69-0.75-0.69-1.19l0-1.39C321.62,79.44,321.93,79.26,322.31,79.48z"/>
					<path class="st12" d="M322.31,85.54l3.77,2.18c0.38,0.22,0.69,0.75,0.69,1.19v1.39c0,0.44-0.31,0.61-0.69,0.4l-3.77-2.18
						c-0.38-0.22-0.69-0.75-0.69-1.19l0-1.39C321.62,85.5,321.93,85.33,322.31,85.54z"/>
					<path class="st12" d="M322.31,91.61l3.77,2.18c0.38,0.22,0.69,0.75,0.69,1.19v1.39c0,0.44-0.31,0.61-0.69,0.4l-3.77-2.18
						c-0.38-0.22-0.69-0.75-0.69-1.19l0-1.39C321.62,91.57,321.93,91.39,322.31,91.61z"/>
					<path class="st12" d="M322.31,97.67l3.77,2.18c0.38,0.22,0.69,0.75,0.69,1.19v1.39c0,0.44-0.31,0.61-0.69,0.4l-3.77-2.18
						c-0.38-0.22-0.69-0.75-0.69-1.19l0-1.39C321.62,97.63,321.93,97.45,322.31,97.67z"/>
					<path class="st12" d="M322.31,103.74l3.77,2.18c0.38,0.22,0.69,0.75,0.69,1.19v1.39c0,0.44-0.31,0.61-0.69,0.4l-3.77-2.18
						c-0.38-0.22-0.69-0.75-0.69-1.19l0-1.39C321.62,103.7,321.93,103.52,322.31,103.74z"/>
					<path class="st12" d="M322.31,109.8l3.77,2.18c0.38,0.22,0.69,0.75,0.69,1.19v1.39c0,0.44-0.31,0.61-0.69,0.4l-3.77-2.18
						c-0.38-0.22-0.69-0.75-0.69-1.19l0-1.39C321.62,109.76,321.93,109.58,322.31,109.8z"/>
					<path class="st12" d="M322.31,115.87l3.77,2.18c0.38,0.22,0.69,0.75,0.69,1.19v1.39c0,0.44-0.31,0.61-0.69,0.4l-3.77-2.18
						c-0.38-0.22-0.69-0.75-0.69-1.19l0-1.39C321.62,115.83,321.93,115.65,322.31,115.87z"/>
					<path class="st12" d="M322.31,121.93l3.77,2.18c0.38,0.22,0.69,0.75,0.69,1.19v1.39c0,0.44-0.31,0.61-0.69,0.4l-3.77-2.18
						c-0.38-0.22-0.69-0.75-0.69-1.19l0-1.39C321.62,121.89,321.93,121.71,322.31,121.93z"/>
					<path class="st12" d="M322.31,128l3.77,2.18c0.38,0.22,0.69,0.75,0.69,1.19v1.39c0,0.44-0.31,0.61-0.69,0.4l-3.77-2.18
						c-0.38-0.22-0.69-0.75-0.69-1.19l0-1.39C321.62,127.96,321.93,127.78,322.31,128z"/>
					<path class="st12" d="M322.31,134.06l3.77,2.18c0.38,0.22,0.69,0.75,0.69,1.19v1.39c0,0.44-0.31,0.61-0.69,0.4l-3.77-2.18
						c-0.38-0.22-0.69-0.75-0.69-1.19l0-1.39C321.62,134.02,321.93,133.84,322.31,134.06z"/>
					<path class="st12" d="M322.31,140.13l3.77,2.18c0.38,0.22,0.69,0.75,0.69,1.19v1.39c0,0.44-0.31,0.61-0.69,0.4l-3.77-2.18
						c-0.38-0.22-0.69-0.75-0.69-1.19l0-1.39C321.62,140.09,321.93,139.91,322.31,140.13z"/>
				</g>
				<g>
					<path class="st2" d="M297.28,53.71l20.4,11.78c0.76,0.44,1.37,1.5,1.37,2.37l0,23.55c0,0.87-0.61,1.23-1.37,0.79l-20.4-11.78
						c-0.76-0.44-1.37-1.5-1.37-2.37V54.51C295.91,53.63,296.52,53.28,297.28,53.71z"/>
					<g>
						<g>
							<path id="XMLID_2822_" class="st4" d="M299.17,77.06l1.88,1.09c0.38,0.22,0.69,0.74,0.69,1.15c0,0.41-0.31,0.57-0.69,0.35
								l-1.88-1.09c-0.38-0.22-0.69-0.74-0.69-1.15C298.48,77,298.79,76.84,299.17,77.06z"/>
							<path id="XMLID_2821_" class="st15" d="M299.17,77.06l1.88,1.09c0.38,0.22,0.69,0.74,0.69,1.15c0,0.41-0.31,0.57-0.69,0.35
								l-1.88-1.09c-0.38-0.22-0.69-0.74-0.69-1.15C298.48,77,298.79,76.84,299.17,77.06z"/>
						</g>
						<g>
							<path id="XMLID_2820_" class="st4" d="M299.17,57.77l1.88,1.09c0.38,0.22,0.69,0.74,0.69,1.15c0,0.41-0.31,0.57-0.69,0.35
								l-1.88-1.09c-0.38-0.22-0.69-0.74-0.69-1.15C298.48,57.71,298.79,57.55,299.17,57.77z"/>
							<path id="XMLID_529_" class="st15" d="M299.17,57.77l1.88,1.09c0.38,0.22,0.69,0.74,0.69,1.15c0,0.41-0.31,0.57-0.69,0.35
								l-1.88-1.09c-0.38-0.22-0.69-0.74-0.69-1.15C298.48,57.71,298.79,57.55,299.17,57.77z"/>
						</g>
						<g>
							<path class="st4" d="M301.81,63.15l1.88,1.09c0.38,0.22,0.69,0.74,0.69,1.15c0,0.41-0.31,0.57-0.69,0.35l-1.88-1.09
								c-0.38-0.22-0.69-0.74-0.69-1.15C301.12,63.08,301.43,62.93,301.81,63.15z"/>
							<path class="st15" d="M301.81,63.15l1.88,1.09c0.38,0.22,0.69,0.74,0.69,1.15c0,0.41-0.31,0.57-0.69,0.35l-1.88-1.09
								c-0.38-0.22-0.69-0.74-0.69-1.15C301.12,63.08,301.43,62.93,301.81,63.15z"/>
						</g>
						<g>
							<path class="st4" d="M301.81,66.99l1.88,1.09c0.38,0.22,0.69,0.74,0.69,1.15c0,0.41-0.31,0.57-0.69,0.35l-1.88-1.09
								c-0.38-0.22-0.69-0.74-0.69-1.15C301.12,66.93,301.43,66.77,301.81,66.99z"/>
							<path class="st15" d="M301.81,66.99l1.88,1.09c0.38,0.22,0.69,0.74,0.69,1.15c0,0.41-0.31,0.57-0.69,0.35l-1.88-1.09
								c-0.38-0.22-0.69-0.74-0.69-1.15C301.12,66.93,301.43,66.77,301.81,66.99z"/>
						</g>
						<g>
							<path class="st4" d="M299.17,69.34l1.88,1.09c0.38,0.22,0.69,0.74,0.69,1.15c0,0.41-0.31,0.57-0.69,0.35l-1.88-1.09
								c-0.38-0.22-0.69-0.74-0.69-1.15C298.48,69.28,298.79,69.12,299.17,69.34z"/>
							<path class="st15" d="M299.17,69.34l1.88,1.09c0.38,0.22,0.69,0.74,0.69,1.15c0,0.41-0.31,0.57-0.69,0.35l-1.88-1.09
								c-0.38-0.22-0.69-0.74-0.69-1.15C298.48,69.28,298.79,69.12,299.17,69.34z"/>
						</g>
						<g>
							<path class="st4" d="M301.81,74.72l1.88,1.09c0.38,0.22,0.69,0.74,0.69,1.15c0,0.41-0.31,0.57-0.69,0.35l-1.88-1.09
								c-0.38-0.22-0.69-0.74-0.69-1.15C301.12,74.66,301.43,74.5,301.81,74.72z"/>
							<path class="st15" d="M301.81,74.72l1.88,1.09c0.38,0.22,0.69,0.74,0.69,1.15c0,0.41-0.31,0.57-0.69,0.35l-1.88-1.09
								c-0.38-0.22-0.69-0.74-0.69-1.15C301.12,74.66,301.43,74.5,301.81,74.72z"/>
						</g>
					</g>
					<g>
						<g>
							<path id="XMLID_354_" class="st4" d="M304.32,60.74l11.47,6.62c0.38,0.22,0.69,0.74,0.69,1.15c0,0.41-0.31,0.57-0.69,0.35
								l-11.47-6.62c-0.38-0.22-0.69-0.74-0.69-1.15C303.62,60.68,303.93,60.52,304.32,60.74z"/>
							<path id="XMLID_353_" class="st16" d="M304.32,60.74l11.47,6.62c0.38,0.22,0.69,0.74,0.69,1.15c0,0.41-0.31,0.57-0.69,0.35
								l-11.47-6.62c-0.38-0.22-0.69-0.74-0.69-1.15C303.62,60.68,303.93,60.52,304.32,60.74z"/>
						</g>
						<g>
							<path id="XMLID_352_" class="st4" d="M304.32,80.03l11.47,6.62c0.38,0.22,0.69,0.74,0.69,1.15s-0.31,0.57-0.69,0.35
								l-11.47-6.62c-0.38-0.22-0.69-0.74-0.69-1.15C303.62,79.97,303.93,79.81,304.32,80.03z"/>
							<path id="XMLID_343_" class="st16" d="M304.32,80.03l11.47,6.62c0.38,0.22,0.69,0.74,0.69,1.15s-0.31,0.57-0.69,0.35
								l-11.47-6.62c-0.38-0.22-0.69-0.74-0.69-1.15C303.62,79.97,303.93,79.81,304.32,80.03z"/>
						</g>
						<g>
							<path class="st4" d="M306.96,66.12l8.83,5.11c0.38,0.22,0.69,0.74,0.69,1.15c0,0.41-0.31,0.57-0.69,0.35l-8.83-5.11
								c-0.38-0.22-0.69-0.74-0.69-1.15C306.26,66.05,306.57,65.9,306.96,66.12z"/>
							<path class="st16" d="M306.96,66.12l8.83,5.11c0.38,0.22,0.69,0.74,0.69,1.15c0,0.41-0.31,0.57-0.69,0.35l-8.83-5.11
								c-0.38-0.22-0.69-0.74-0.69-1.15C306.26,66.05,306.57,65.9,306.96,66.12z"/>
						</g>
						<g>
							<path class="st4" d="M306.96,69.97l8.83,5.11c0.38,0.22,0.69,0.74,0.69,1.15c0,0.41-0.31,0.57-0.69,0.35l-8.83-5.11
								c-0.38-0.22-0.69-0.74-0.69-1.15C306.26,69.91,306.57,69.75,306.96,69.97z"/>
							<path class="st16" d="M306.96,69.97l8.83,5.11c0.38,0.22,0.69,0.74,0.69,1.15c0,0.41-0.31,0.57-0.69,0.35l-8.83-5.11
								c-0.38-0.22-0.69-0.74-0.69-1.15C306.26,69.91,306.57,69.75,306.96,69.97z"/>
						</g>
						<g>
							<path class="st4" d="M304.32,72.32l11.47,6.62c0.38,0.22,0.69,0.74,0.69,1.15c0,0.41-0.31,0.57-0.69,0.35l-11.47-6.62
								c-0.38-0.22-0.69-0.74-0.69-1.15C303.62,72.25,303.93,72.1,304.32,72.32z"/>
							<path class="st16" d="M304.32,72.32l11.47,6.62c0.38,0.22,0.69,0.74,0.69,1.15c0,0.41-0.31,0.57-0.69,0.35l-11.47-6.62
								c-0.38-0.22-0.69-0.74-0.69-1.15C303.62,72.25,303.93,72.1,304.32,72.32z"/>
						</g>
						<g>
							<path class="st4" d="M306.96,77.69l8.83,5.11c0.38,0.22,0.69,0.74,0.69,1.15c0,0.41-0.31,0.57-0.69,0.35l-8.83-5.11
								c-0.38-0.22-0.69-0.74-0.69-1.15C306.26,77.63,306.57,77.47,306.96,77.69z"/>
							<path class="st16" d="M306.96,77.69l8.83,5.11c0.38,0.22,0.69,0.74,0.69,1.15c0,0.41-0.31,0.57-0.69,0.35l-8.83-5.11
								c-0.38-0.22-0.69-0.74-0.69-1.15C306.26,77.63,306.57,77.47,306.96,77.69z"/>
						</g>
					</g>
				</g>
				<g>
					<path class="st2" d="M297.28,84.87l20.4,11.78c0.76,0.44,1.37,1.5,1.37,2.37l0,46.54c0,0.87-0.61,1.23-1.37,0.79l-20.4-11.78
						c-0.76-0.44-1.37-1.5-1.37-2.37V85.66C295.91,84.78,296.52,84.43,297.28,84.87z"/>
					<g>
						<g>
							<path id="XMLID_342_" class="st4" d="M299.17,88.92l1.88,1.09c0.38,0.22,0.69,0.74,0.69,1.15c0,0.41-0.31,0.57-0.69,0.35
								l-1.88-1.09c-0.38-0.22-0.69-0.74-0.69-1.15C298.48,88.86,298.79,88.7,299.17,88.92z"/>
							<path id="XMLID_341_" class="st15" d="M299.17,88.92l1.88,1.09c0.38,0.22,0.69,0.74,0.69,1.15c0,0.41-0.31,0.57-0.69,0.35
								l-1.88-1.09c-0.38-0.22-0.69-0.74-0.69-1.15C298.48,88.86,298.79,88.7,299.17,88.92z"/>
						</g>
						<g>
							<path class="st4" d="M301.81,94.3l1.88,1.09c0.38,0.22,0.69,0.74,0.69,1.15c0,0.41-0.31,0.57-0.69,0.35l-1.88-1.09
								c-0.38-0.22-0.69-0.74-0.69-1.15C301.12,94.23,301.43,94.08,301.81,94.3z"/>
							<path class="st15" d="M301.81,94.3l1.88,1.09c0.38,0.22,0.69,0.74,0.69,1.15c0,0.41-0.31,0.57-0.69,0.35l-1.88-1.09
								c-0.38-0.22-0.69-0.74-0.69-1.15C301.12,94.23,301.43,94.08,301.81,94.3z"/>
						</g>
						<g>
							<path class="st4" d="M301.81,98.15l1.88,1.09c0.38,0.22,0.69,0.74,0.69,1.15c0,0.41-0.31,0.57-0.69,0.35l-1.88-1.09
								c-0.38-0.22-0.69-0.74-0.69-1.15C301.12,98.08,301.43,97.92,301.81,98.15z"/>
							<path class="st15" d="M301.81,98.15l1.88,1.09c0.38,0.22,0.69,0.74,0.69,1.15c0,0.41-0.31,0.57-0.69,0.35l-1.88-1.09
								c-0.38-0.22-0.69-0.74-0.69-1.15C301.12,98.08,301.43,97.92,301.81,98.15z"/>
						</g>
						<g>
							<path class="st4" d="M299.17,100.5l1.88,1.09c0.38,0.22,0.69,0.74,0.69,1.15c0,0.41-0.31,0.57-0.69,0.35l-1.88-1.09
								c-0.38-0.22-0.69-0.74-0.69-1.15C298.48,100.43,298.79,100.27,299.17,100.5z"/>
							<path class="st15" d="M299.17,100.5l1.88,1.09c0.38,0.22,0.69,0.74,0.69,1.15c0,0.41-0.31,0.57-0.69,0.35l-1.88-1.09
								c-0.38-0.22-0.69-0.74-0.69-1.15C298.48,100.43,298.79,100.27,299.17,100.5z"/>
						</g>
					</g>
					<g>
						<g>
							<path id="XMLID_340_" class="st4" d="M304.32,91.9l11.47,6.62c0.38,0.22,0.69,0.74,0.69,1.15c0,0.41-0.31,0.57-0.69,0.35
								l-11.47-6.62c-0.38-0.22-0.69-0.74-0.69-1.15C303.62,91.83,303.93,91.67,304.32,91.9z"/>
							<path id="XMLID_321_" class="st16" d="M304.32,91.9l11.47,6.62c0.38,0.22,0.69,0.74,0.69,1.15c0,0.41-0.31,0.57-0.69,0.35
								l-11.47-6.62c-0.38-0.22-0.69-0.74-0.69-1.15C303.62,91.83,303.93,91.67,304.32,91.9z"/>
						</g>
						<g>
							<path class="st4" d="M306.96,97.27l8.83,5.11c0.38,0.22,0.69,0.74,0.69,1.15c0,0.41-0.31,0.57-0.69,0.35l-8.83-5.11
								c-0.38-0.22-0.69-0.74-0.69-1.15C306.26,97.2,306.57,97.05,306.96,97.27z"/>
							<path class="st16" d="M306.96,97.27l8.83,5.11c0.38,0.22,0.69,0.74,0.69,1.15c0,0.41-0.31,0.57-0.69,0.35l-8.83-5.11
								c-0.38-0.22-0.69-0.74-0.69-1.15C306.26,97.2,306.57,97.05,306.96,97.27z"/>
						</g>
						<g>
							<path class="st4" d="M306.96,101.13l8.83,5.11c0.38,0.22,0.69,0.74,0.69,1.15c0,0.41-0.31,0.57-0.69,0.35l-8.83-5.11
								c-0.38-0.22-0.69-0.74-0.69-1.15C306.26,101.06,306.57,100.9,306.96,101.13z"/>
							<path class="st16" d="M306.96,101.13l8.83,5.11c0.38,0.22,0.69,0.74,0.69,1.15c0,0.41-0.31,0.57-0.69,0.35l-8.83-5.11
								c-0.38-0.22-0.69-0.74-0.69-1.15C306.26,101.06,306.57,100.9,306.96,101.13z"/>
						</g>
						<g>
							<path class="st4" d="M304.32,103.47l11.47,6.62c0.38,0.22,0.69,0.74,0.69,1.15c0,0.41-0.31,0.57-0.69,0.35l-11.47-6.62
								c-0.38-0.22-0.69-0.74-0.69-1.15C303.62,103.4,303.93,103.25,304.32,103.47z"/>
							<path class="st16" d="M304.32,103.47l11.47,6.62c0.38,0.22,0.69,0.74,0.69,1.15c0,0.41-0.31,0.57-0.69,0.35l-11.47-6.62
								c-0.38-0.22-0.69-0.74-0.69-1.15C303.62,103.4,303.93,103.25,304.32,103.47z"/>
						</g>
						<g>
							<path class="st4" d="M301.81,105.89l1.88,1.09c0.38,0.22,0.69,0.74,0.69,1.15c0,0.41-0.31,0.57-0.69,0.35l-1.88-1.09
								c-0.38-0.22-0.69-0.74-0.69-1.15C301.12,105.83,301.43,105.67,301.81,105.89z"/>
							<path class="st15" d="M301.81,105.89l1.88,1.09c0.38,0.22,0.69,0.74,0.69,1.15c0,0.41-0.31,0.57-0.69,0.35l-1.88-1.09
								c-0.38-0.22-0.69-0.74-0.69-1.15C301.12,105.83,301.43,105.67,301.81,105.89z"/>
						</g>
						<g>
							<path class="st4" d="M301.81,109.74l1.88,1.09c0.38,0.22,0.69,0.74,0.69,1.15c0,0.41-0.31,0.57-0.69,0.35l-1.88-1.09
								c-0.38-0.22-0.69-0.74-0.69-1.15C301.12,109.68,301.43,109.52,301.81,109.74z"/>
							<path class="st15" d="M301.81,109.74l1.88,1.09c0.38,0.22,0.69,0.74,0.69,1.15c0,0.41-0.31,0.57-0.69,0.35l-1.88-1.09
								c-0.38-0.22-0.69-0.74-0.69-1.15C301.12,109.68,301.43,109.52,301.81,109.74z"/>
						</g>
						<g>
							<path class="st4" d="M306.96,108.86l8.83,5.11c0.38,0.22,0.69,0.74,0.69,1.15c0,0.41-0.31,0.57-0.69,0.35l-8.83-5.11
								c-0.38-0.22-0.69-0.74-0.69-1.15C306.26,108.8,306.57,108.64,306.96,108.86z"/>
							<path class="st16" d="M306.96,108.86l8.83,5.11c0.38,0.22,0.69,0.74,0.69,1.15c0,0.41-0.31,0.57-0.69,0.35l-8.83-5.11
								c-0.38-0.22-0.69-0.74-0.69-1.15C306.26,108.8,306.57,108.64,306.96,108.86z"/>
						</g>
						<g>
							<path class="st4" d="M306.96,112.72l8.83,5.11c0.38,0.22,0.69,0.74,0.69,1.15s-0.31,0.57-0.69,0.35l-8.83-5.11
								c-0.38-0.22-0.69-0.74-0.69-1.15C306.26,112.66,306.57,112.5,306.96,112.72z"/>
							<path class="st16" d="M306.96,112.72l8.83,5.11c0.38,0.22,0.69,0.74,0.69,1.15s-0.31,0.57-0.69,0.35l-8.83-5.11
								c-0.38-0.22-0.69-0.74-0.69-1.15C306.26,112.66,306.57,112.5,306.96,112.72z"/>
						</g>
						<g>
							<path class="st4" d="M299.17,119.83l1.88,1.09c0.38,0.22,0.69,0.74,0.69,1.15s-0.31,0.57-0.69,0.35l-1.88-1.09
								c-0.38-0.22-0.69-0.74-0.69-1.15C298.48,119.77,298.79,119.61,299.17,119.83z"/>
							<path class="st15" d="M299.17,119.83l1.88,1.09c0.38,0.22,0.69,0.74,0.69,1.15s-0.31,0.57-0.69,0.35l-1.88-1.09
								c-0.38-0.22-0.69-0.74-0.69-1.15C298.48,119.77,298.79,119.61,299.17,119.83z"/>
						</g>
						<g>
							<path class="st4" d="M304.32,122.8l11.47,6.62c0.38,0.22,0.69,0.74,0.69,1.15c0,0.41-0.31,0.57-0.69,0.35l-11.47-6.62
								c-0.38-0.22-0.69-0.74-0.69-1.15S303.93,122.58,304.32,122.8z"/>
							<path class="st16" d="M304.32,122.8l11.47,6.62c0.38,0.22,0.69,0.74,0.69,1.15c0,0.41-0.31,0.57-0.69,0.35l-11.47-6.62
								c-0.38-0.22-0.69-0.74-0.69-1.15S303.93,122.58,304.32,122.8z"/>
						</g>
						<g>
							<path class="st4" d="M301.81,125.23l1.88,1.09c0.38,0.22,0.69,0.74,0.69,1.15c0,0.41-0.31,0.57-0.69,0.35l-1.88-1.09
								c-0.38-0.22-0.69-0.74-0.69-1.15C301.12,125.17,301.43,125.01,301.81,125.23z"/>
							<path class="st15" d="M301.81,125.23l1.88,1.09c0.38,0.22,0.69,0.74,0.69,1.15c0,0.41-0.31,0.57-0.69,0.35l-1.88-1.09
								c-0.38-0.22-0.69-0.74-0.69-1.15C301.12,125.17,301.43,125.01,301.81,125.23z"/>
						</g>
						<g>
							<path class="st4" d="M301.81,129.08l1.88,1.09c0.38,0.22,0.69,0.74,0.69,1.15c0,0.41-0.31,0.57-0.69,0.35l-1.88-1.09
								c-0.38-0.22-0.69-0.74-0.69-1.15C301.12,129.01,301.43,128.86,301.81,129.08z"/>
							<path class="st15" d="M301.81,129.08l1.88,1.09c0.38,0.22,0.69,0.74,0.69,1.15c0,0.41-0.31,0.57-0.69,0.35l-1.88-1.09
								c-0.38-0.22-0.69-0.74-0.69-1.15C301.12,129.01,301.43,128.86,301.81,129.08z"/>
						</g>
						<g>
							<path class="st4" d="M306.96,128.2l8.83,5.11c0.38,0.22,0.69,0.74,0.69,1.15c0,0.41-0.31,0.57-0.69,0.35l-8.83-5.11
								c-0.38-0.22-0.69-0.74-0.69-1.15C306.26,128.14,306.57,127.98,306.96,128.2z"/>
							<path class="st16" d="M306.96,128.2l8.83,5.11c0.38,0.22,0.69,0.74,0.69,1.15c0,0.41-0.31,0.57-0.69,0.35l-8.83-5.11
								c-0.38-0.22-0.69-0.74-0.69-1.15C306.26,128.14,306.57,127.98,306.96,128.2z"/>
						</g>
						<g>
							<path class="st4" d="M306.96,132.06l8.83,5.11c0.38,0.22,0.69,0.74,0.69,1.15s-0.31,0.57-0.69,0.35l-8.83-5.11
								c-0.38-0.22-0.69-0.74-0.69-1.15C306.26,131.99,306.57,131.84,306.96,132.06z"/>
							<path class="st16" d="M306.96,132.06l8.83,5.11c0.38,0.22,0.69,0.74,0.69,1.15s-0.31,0.57-0.69,0.35l-8.83-5.11
								c-0.38-0.22-0.69-0.74-0.69-1.15C306.26,131.99,306.57,131.84,306.96,132.06z"/>
						</g>
						<g>
							<path class="st4" d="M301.81,113.57l1.88,1.09c0.38,0.22,0.69,0.74,0.69,1.15c0,0.41-0.31,0.57-0.69,0.35l-1.88-1.09
								c-0.38-0.22-0.69-0.74-0.69-1.15C301.12,113.51,301.43,113.35,301.81,113.57z"/>
							<path class="st15" d="M301.81,113.57l1.88,1.09c0.38,0.22,0.69,0.74,0.69,1.15c0,0.41-0.31,0.57-0.69,0.35l-1.88-1.09
								c-0.38-0.22-0.69-0.74-0.69-1.15C301.12,113.51,301.43,113.35,301.81,113.57z"/>
						</g>
						<g>
							<path class="st4" d="M299.17,115.92l1.88,1.09c0.38,0.22,0.69,0.74,0.69,1.15s-0.31,0.57-0.69,0.35l-1.88-1.09
								c-0.38-0.22-0.69-0.74-0.69-1.15C298.48,115.86,298.79,115.7,299.17,115.92z"/>
							<path class="st15" d="M299.17,115.92l1.88,1.09c0.38,0.22,0.69,0.74,0.69,1.15s-0.31,0.57-0.69,0.35l-1.88-1.09
								c-0.38-0.22-0.69-0.74-0.69-1.15C298.48,115.86,298.79,115.7,299.17,115.92z"/>
						</g>
						<g>
							<path class="st4" d="M306.96,116.55l8.83,5.11c0.38,0.22,0.69,0.74,0.69,1.15c0,0.41-0.31,0.57-0.69,0.35l-8.83-5.11
								c-0.38-0.22-0.69-0.74-0.69-1.15C306.26,116.49,306.57,116.33,306.96,116.55z"/>
							<path class="st16" d="M306.96,116.55l8.83,5.11c0.38,0.22,0.69,0.74,0.69,1.15c0,0.41-0.31,0.57-0.69,0.35l-8.83-5.11
								c-0.38-0.22-0.69-0.74-0.69-1.15C306.26,116.49,306.57,116.33,306.96,116.55z"/>
						</g>
						<g>
							<path class="st4" d="M304.32,118.89l11.47,6.62c0.38,0.22,0.69,0.74,0.69,1.15c0,0.41-0.31,0.57-0.69,0.35l-11.47-6.62
								c-0.38-0.22-0.69-0.74-0.69-1.15C303.62,118.83,303.93,118.67,304.32,118.89z"/>
							<path class="st16" d="M304.32,118.89l11.47,6.62c0.38,0.22,0.69,0.74,0.69,1.15c0,0.41-0.31,0.57-0.69,0.35l-11.47-6.62
								c-0.38-0.22-0.69-0.74-0.69-1.15C303.62,118.83,303.93,118.67,304.32,118.89z"/>
						</g>
						<g>
							<path class="st4" d="M299.17,131.48l1.88,1.09c0.38,0.22,0.69,0.74,0.69,1.15c0,0.41-0.31,0.57-0.69,0.35l-1.88-1.09
								c-0.38-0.22-0.69-0.74-0.69-1.15C298.48,131.42,298.79,131.26,299.17,131.48z"/>
							<path class="st15" d="M299.17,131.48l1.88,1.09c0.38,0.22,0.69,0.74,0.69,1.15c0,0.41-0.31,0.57-0.69,0.35l-1.88-1.09
								c-0.38-0.22-0.69-0.74-0.69-1.15C298.48,131.42,298.79,131.26,299.17,131.48z"/>
						</g>
						<g>
							<path class="st4" d="M304.32,134.46l11.47,6.62c0.38,0.22,0.69,0.74,0.69,1.15s-0.31,0.57-0.69,0.35l-11.47-6.62
								c-0.38-0.22-0.69-0.74-0.69-1.15C303.62,134.39,303.93,134.23,304.32,134.46z"/>
							<path class="st16" d="M304.32,134.46l11.47,6.62c0.38,0.22,0.69,0.74,0.69,1.15s-0.31,0.57-0.69,0.35l-11.47-6.62
								c-0.38-0.22-0.69-0.74-0.69-1.15C303.62,134.39,303.93,134.23,304.32,134.46z"/>
						</g>
					</g>
				</g>
			</g>
		</g>
		<g id="Window_4_">
			<g id="XMLID_3556_">
				<g id="XMLID_3571_" class="st17">
					<path class="st3" d="M410.78,150.29v76.38c0,1.02,0.71,2.24,1.59,2.75l43.88,25.32c0.18,0.1,0.36,0.16,0.53,0.15
						c0.07,0,0.14-0.01,0.2-0.03c0.05-0.01,0.09-0.03,0.14-0.05c0.03-0.02,0.06-0.03,0.08-0.05c0.03-0.02,0.06-0.04,0.09-0.06
						c0.03-0.03,0.06-0.05,0.09-0.08c0.13-0.11,0.22-0.26,0.29-0.42c0.1-0.23,0.17-0.51,0.17-0.8v-75.99c0-1.01-0.71-2.24-1.59-2.75
						l-43.88-25.29c-0.41-0.23-0.78-0.27-1.07-0.14c-0.05,0.02-0.09,0.05-0.14,0.08c-0.01,0.01-0.01,0.01-0.01,0.01
						c-0.04,0.03-0.07,0.06-0.1,0.1c-0.02,0.02-0.03,0.04-0.05,0.06c-0.02,0.03-0.04,0.05-0.05,0.08c-0.04,0.06-0.07,0.13-0.09,0.2
						c-0.02,0.04-0.03,0.09-0.04,0.14c-0.01,0.01-0.01,0.02-0.01,0.03c-0.02,0.05-0.02,0.09-0.03,0.15
						C410.79,150.16,410.78,150.23,410.78,150.29z"/>
				</g>
				<g id="XMLID_3563_">
					<g id="XMLID_3568_">
						<path class="st4" d="M411.3,149.24c0.29-0.14,0.66-0.1,1.07,0.14l43.88,25.29c0.87,0.51,1.59,1.74,1.59,2.75v5.19l2.53-1.46
							v-5.15c0-1.01-0.71-2.24-1.58-2.74l-43.88-25.29c-0.45-0.27-0.86-0.27-1.15-0.09C413.46,148.04,411.64,149.07,411.3,149.24z"
							/>
					</g>
					<path id="XMLID_3567_" class="st4" d="M410.79,150.28c0.01-1,0.71-1.41,1.58-0.9l43.88,25.29c0.88,0.51,1.59,1.74,1.59,2.75
						l0,5.19l-47.05-27.12V150.28z"/>
					<g id="XMLID_3566_" class="st6">
						<path class="st12" d="M412.37,149.38l43.88,25.29c0.43,0.25,0.83,0.68,1.12,1.18l2.52-1.44c-0.28-0.49-0.67-0.91-1.1-1.16
							l-43.88-25.29c-0.45-0.26-0.86-0.27-1.15-0.09c-0.28,0.17-2.1,1.2-2.44,1.38C411.59,149.1,411.96,149.14,412.37,149.38z"/>
					</g>
					<path id="XMLID_3564_" class="st8" d="M460.37,181.15l0-5.16c0-0.51-0.19-1.08-0.48-1.59l-2.52,1.44
						c0.29,0.5,0.47,1.06,0.47,1.58v5.19L460.37,181.15z"/>
				</g>
				<g id="XMLID_3559_">
					<path id="XMLID_3562_" class="st3" d="M455.53,176.8c0.49,0.29,0.9,1.14,0.9,1.9c0,0.76-0.4,1.15-0.9,0.86
						c-0.49-0.29-0.9-1.14-0.9-1.9C454.63,176.9,455.04,176.52,455.53,176.8z"/>
					<path id="XMLID_3561_" class="st3" d="M452.3,174.94c0.49,0.29,0.9,1.14,0.9,1.9c0,0.76-0.4,1.15-0.9,0.86
						c-0.49-0.29-0.9-1.13-0.9-1.9C451.41,175.04,451.81,174.65,452.3,174.94z"/>
					<path id="XMLID_3560_" class="st3" d="M449.08,173.07c0.49,0.29,0.9,1.14,0.9,1.9c0,0.76-0.4,1.15-0.9,0.86
						c-0.49-0.29-0.9-1.14-0.9-1.9C448.18,173.17,448.58,172.79,449.08,173.07z"/>
				</g>
				<g id="XMLID_3558_" class="st18">
					<path class="st2" d="M457.26,254.74c0.06-0.04,0.12-0.07,0.2-0.11c0.15-0.09,0.31-0.18,0.49-0.28l0.01-0.01
						c0.09-0.05,0.18-0.1,0.27-0.15c0.01-0.01,0.02-0.01,0.02-0.01c0.15-0.08,0.29-0.17,0.42-0.24c0.14-0.08,0.76-0.42,0.85-0.47
						c0.09-0.06,0.17-0.09,0.2-0.11c0.1-0.05,0.19-0.13,0.27-0.22c0.08-0.09,0.16-0.2,0.21-0.32c0.11-0.24,0.18-0.53,0.18-0.84
						v-70.84l-2.53,1.46v70.81c-0.02,0.31-0.07,0.58-0.17,0.8c-0.07,0.16-0.17,0.3-0.29,0.42c-0.02,0.03-0.05,0.06-0.09,0.08
						C457.28,254.72,457.27,254.73,457.26,254.74z"/>
				</g>
			</g>
			<g id="XMLID_2916_">
				<g id="XMLID_3493_">
					<path id="XMLID_3552_" class="st4" d="M414.43,164.25c0-0.1,0.03-0.16,0.08-0.2l1.14-1.04c0.02-0.01,0.04-0.02,0.05-0.01
						c0.02,0.01,0.02,0.01,0.03,0.01c0.03,0.02,0.06,0.06,0.09,0.11c0.02,0.05,0.04,0.11,0.04,0.16v0.79c0,0.1-0.01,0.17-0.02,0.22
						c-0.02,0.04-0.04,0.09-0.08,0.12l-0.6,0.55l0.6,1.25c0.04,0.08,0.07,0.15,0.08,0.22c0.02,0.06,0.02,0.14,0.02,0.25v0.79
						c0,0.05-0.01,0.09-0.04,0.12c-0.03,0.02-0.06,0.03-0.09,0.01c0,0-0.01-0.01-0.03-0.02c-0.02-0.01-0.03-0.04-0.05-0.07
						l-1.14-2.36c-0.05-0.1-0.08-0.2-0.08-0.3V164.25z"/>
					<path id="XMLID_3548_" class="st4" d="M418.6,163.15c0.02-0.05,0.05-0.1,0.09-0.13c0.04-0.03,0.09-0.03,0.17,0.01l0.43,0.25
						c0.03,0.02,0.06,0.06,0.09,0.11c0.02,0.05,0.04,0.11,0.04,0.16c0,0.02,0,0.05-0.01,0.07l-1.96,6.08
						c-0.02,0.05-0.04,0.09-0.08,0.13c-0.04,0.04-0.1,0.03-0.17-0.01l-0.41-0.24c-0.03-0.02-0.06-0.06-0.09-0.11
						c-0.03-0.05-0.04-0.11-0.04-0.16c0-0.02,0-0.05,0.01-0.07L418.6,163.15z"/>
					<path id="XMLID_3541_" class="st4" d="M421.63,168.99c0,0.1-0.03,0.16-0.08,0.2l-1.14,1.04c-0.02,0.01-0.04,0.02-0.05,0.01
						c-0.02-0.01-0.03-0.01-0.03-0.01c-0.03-0.02-0.06-0.06-0.09-0.11c-0.02-0.05-0.04-0.11-0.04-0.16v-0.79
						c0-0.1,0.01-0.17,0.02-0.22c0.02-0.04,0.04-0.09,0.08-0.12l0.6-0.55l-0.6-1.25c-0.04-0.08-0.07-0.15-0.08-0.22
						c-0.02-0.06-0.02-0.14-0.02-0.24v-0.79c0-0.05,0.01-0.09,0.04-0.12c0.03-0.02,0.06-0.03,0.09-0.01c0,0,0.01,0.01,0.03,0.02
						c0.02,0.01,0.03,0.04,0.05,0.07l1.14,2.36c0.05,0.1,0.08,0.2,0.08,0.3V168.99z"/>
					<path id="XMLID_3522_" class="st4" d="M424.8,172.11c0.04,0.02,0.08,0.07,0.11,0.14c0.03,0.07,0.05,0.13,0.05,0.2v0.87
						c0,0.07-0.02,0.11-0.05,0.14c-0.03,0.03-0.07,0.03-0.11,0.01l-0.54-0.31c-0.04-0.02-0.08-0.07-0.11-0.13
						c-0.03-0.07-0.05-0.13-0.05-0.2v-0.87c0-0.07,0.02-0.11,0.05-0.14c0.03-0.03,0.07-0.03,0.11-0.01L424.8,172.11z"/>
					<path id="XMLID_3499_" class="st4" d="M426.6,173.15c0.04,0.02,0.08,0.07,0.11,0.13c0.03,0.07,0.05,0.13,0.05,0.2v0.87
						c0,0.07-0.02,0.11-0.05,0.14c-0.03,0.03-0.07,0.03-0.11,0.01l-0.54-0.31c-0.04-0.02-0.08-0.07-0.11-0.13
						c-0.03-0.07-0.05-0.13-0.05-0.2v-0.87c0-0.07,0.02-0.11,0.05-0.14c0.03-0.03,0.07-0.03,0.11-0.01L426.6,173.15z"/>
					<path id="XMLID_3497_" class="st4" d="M428.4,174.18c0.04,0.02,0.08,0.07,0.11,0.14c0.03,0.07,0.05,0.13,0.05,0.2v0.87
						c0,0.07-0.02,0.11-0.05,0.14c-0.03,0.03-0.07,0.03-0.11,0.01l-0.54-0.31c-0.04-0.02-0.08-0.07-0.11-0.13
						c-0.03-0.07-0.05-0.13-0.05-0.2v-0.87c0-0.07,0.02-0.11,0.05-0.14c0.03-0.03,0.07-0.03,0.11-0.01L428.4,174.18z"/>
				</g>
				<path id="XMLID_3489_" class="st4" d="M414.91,171.17l26.36,15.22c0.31,0.18,0.56,0.6,0.56,0.94c0,0.34-0.25,0.46-0.56,0.29
					l-26.36-15.22c-0.31-0.18-0.56-0.6-0.56-0.94C414.35,171.12,414.6,170.99,414.91,171.17z"/>
				<path id="XMLID_3488_" class="st1" d="M423.37,190.71l26.36,15.22c0.31,0.18,0.56,0.6,0.56,0.94s-0.25,0.46-0.56,0.29
					l-26.36-15.22c-0.31-0.18-0.56-0.6-0.56-0.94C422.81,190.65,423.06,190.53,423.37,190.71z"/>
				<path id="XMLID_3480_" class="st1" d="M423.37,200.47l12.62,7.29c0.31,0.18,0.56,0.6,0.56,0.94s-0.25,0.46-0.56,0.29
					l-12.62-7.29c-0.31-0.18-0.56-0.6-0.56-0.94C422.81,200.42,423.06,200.29,423.37,200.47z"/>
				<path id="XMLID_3458_" class="st4" d="M443.46,187.65l10.5,6.04c0.31,0.18,0.56,0.6,0.56,0.94c0,0.34-0.25,0.46-0.56,0.29
					l-10.5-6.04c-0.31-0.18-0.56-0.6-0.56-0.94S443.15,187.47,443.46,187.65z"/>
				<path id="XMLID_3455_" class="st4" d="M414.91,224.89l26.36,15.22c0.31,0.18,0.56,0.6,0.56,0.94c0,0.34-0.25,0.46-0.56,0.29
					l-26.36-15.22c-0.31-0.18-0.56-0.6-0.56-0.94C414.35,224.83,414.6,224.71,414.91,224.89z"/>
				<path id="XMLID_3452_" class="st4" d="M443.46,241.37l10.5,6.04c0.31,0.18,0.56,0.6,0.56,0.94c0,0.34-0.25,0.46-0.56,0.29
					l-10.5-6.04c-0.31-0.18-0.56-0.6-0.56-0.94C442.9,241.32,443.15,241.19,443.46,241.37z"/>
				<path id="XMLID_3448_" class="st4" d="M443.46,226.74l10.5,6.04c0.31,0.18,0.56,0.6,0.56,0.94c0,0.34-0.25,0.46-0.56,0.29
					l-10.5-6.04c-0.31-0.18-0.56-0.6-0.56-0.94C442.9,226.69,443.15,226.56,443.46,226.74z"/>
				<path id="XMLID_3288_" class="st4" d="M443.46,231.63l10.5,6.04c0.31,0.18,0.56,0.6,0.56,0.94c0,0.34-0.25,0.46-0.56,0.29
					l-10.5-6.04c-0.31-0.18-0.56-0.6-0.56-0.94C442.9,231.57,443.15,231.45,443.46,231.63z"/>
				<path id="XMLID_3285_" class="st4" d="M434.5,221.56l5.9,3.41c0.31,0.18,0.56,0.6,0.56,0.94c0,0.34-0.25,0.46-0.56,0.29
					l-5.9-3.41c-0.31-0.18-0.56-0.6-0.56-0.94C433.94,221.51,434.19,221.38,434.5,221.56z"/>
				<g id="XMLID_3242_">
					<path id="XMLID_3244_" class="st4" d="M414.91,176.07l15.38,8.87c0.31,0.18,0.56,0.6,0.56,0.94s-0.25,0.46-0.56,0.29
						l-15.38-8.87c-0.31-0.18-0.56-0.6-0.56-0.94C414.35,176.01,414.6,175.89,414.91,176.07z"/>
					<path id="XMLID_3243_" class="st15" d="M414.91,176.07l15.38,8.87c0.31,0.18,0.56,0.6,0.56,0.94s-0.25,0.46-0.56,0.29
						l-15.38-8.87c-0.31-0.18-0.56-0.6-0.56-0.94C414.35,176.01,414.6,175.89,414.91,176.07z"/>
				</g>
				<g id="XMLID_3239_">
					<path id="XMLID_3241_" class="st4" d="M414.91,180.94l5.22,3.01c0.31,0.18,0.56,0.6,0.56,0.94c0,0.34-0.25,0.46-0.56,0.29
						l-5.22-3.01c-0.31-0.18-0.56-0.6-0.56-0.94C414.35,180.89,414.6,180.76,414.91,180.94z"/>
					<path id="XMLID_3240_" class="st15" d="M414.91,180.94l5.22,3.01c0.31,0.18,0.56,0.6,0.56,0.94c0,0.34-0.25,0.46-0.56,0.29
						l-5.22-3.01c-0.31-0.18-0.56-0.6-0.56-0.94C414.35,180.89,414.6,180.76,414.91,180.94z"/>
				</g>
				<g id="XMLID_3236_">
					<path id="XMLID_3238_" class="st4" d="M414.91,185.82l5.22,3.01c0.31,0.18,0.56,0.6,0.56,0.94s-0.25,0.46-0.56,0.29l-5.22-3.01
						c-0.31-0.18-0.56-0.6-0.56-0.94C414.35,185.77,414.6,185.64,414.91,185.82z"/>
					<path id="XMLID_3237_" class="st15" d="M414.91,185.82l5.22,3.01c0.31,0.18,0.56,0.6,0.56,0.94s-0.25,0.46-0.56,0.29
						l-5.22-3.01c-0.31-0.18-0.56-0.6-0.56-0.94C414.35,185.77,414.6,185.64,414.91,185.82z"/>
				</g>
				<g id="XMLID_3234_">
					<path id="XMLID_3235_" class="st4" d="M414.91,190.71l5.22,3.01c0.31,0.18,0.56,0.6,0.56,0.94c0,0.34-0.25,0.46-0.56,0.29
						l-5.22-3.01c-0.31-0.18-0.56-0.6-0.56-0.94C414.35,190.65,414.6,190.53,414.91,190.71z"/>
				</g>
				<path id="XMLID_3233_" class="st15" d="M414.91,190.71l5.22,3.01c0.31,0.18,0.56,0.6,0.56,0.94c0,0.34-0.25,0.46-0.56,0.29
					l-5.22-3.01c-0.31-0.18-0.56-0.6-0.56-0.94C414.35,190.65,414.6,190.53,414.91,190.71z"/>
				<path id="XMLID_3232_" class="st19" d="M423.37,195.59l15.38,8.87c0.31,0.18,0.56,0.6,0.56,0.94c0,0.34-0.25,0.46-0.56,0.29
					l-15.38-8.87c-0.31-0.18-0.56-0.6-0.56-0.94C422.81,195.54,423.06,195.41,423.37,195.59z"/>
				<path id="XMLID_3228_" class="st19" d="M440.93,205.72l6.69,3.87c0.31,0.18,0.56,0.6,0.56,0.94c0,0.34-0.25,0.46-0.56,0.29
					l-6.69-3.87c-0.31-0.18-0.56-0.6-0.56-0.94C440.37,205.67,440.62,205.54,440.93,205.72z"/>
				<path id="XMLID_3205_" class="st15" d="M423.37,195.59l15.38,8.87c0.31,0.18,0.56,0.6,0.56,0.94c0,0.34-0.25,0.46-0.56,0.29
					l-15.38-8.87c-0.31-0.18-0.56-0.6-0.56-0.94C422.81,195.54,423.06,195.41,423.37,195.59z"/>
				<path id="XMLID_3204_" class="st15" d="M440.93,205.72l6.69,3.87c0.31,0.18,0.56,0.6,0.56,0.94c0,0.34-0.25,0.46-0.56,0.29
					l-6.69-3.87c-0.31-0.18-0.56-0.6-0.56-0.94C440.37,205.67,440.62,205.54,440.93,205.72z"/>
				<g id="XMLID_3201_">
					<path id="XMLID_3203_" class="st4" d="M414.91,195.59l5.22,3.01c0.31,0.18,0.56,0.6,0.56,0.94c0,0.34-0.25,0.46-0.56,0.29
						l-5.22-3.01c-0.31-0.18-0.56-0.6-0.56-0.94C414.35,195.54,414.6,195.41,414.91,195.59z"/>
					<path id="XMLID_3202_" class="st15" d="M414.91,195.59l5.22,3.01c0.31,0.18,0.56,0.6,0.56,0.94c0,0.34-0.25,0.46-0.56,0.29
						l-5.22-3.01c-0.31-0.18-0.56-0.6-0.56-0.94C414.35,195.54,414.6,195.41,414.91,195.59z"/>
				</g>
				<g id="XMLID_3198_">
					<path id="XMLID_3200_" class="st4" d="M432.47,186.2l6.69,3.87c0.31,0.18,0.56,0.6,0.56,0.94c0,0.34-0.25,0.46-0.56,0.29
						l-6.69-3.87c-0.31-0.18-0.56-0.6-0.56-0.94C431.91,186.15,432.16,186.02,432.47,186.2z"/>
					<path id="XMLID_3199_" class="st15" d="M432.47,186.2l6.69,3.87c0.31,0.18,0.56,0.6,0.56,0.94c0,0.34-0.25,0.46-0.56,0.29
						l-6.69-3.87c-0.31-0.18-0.56-0.6-0.56-0.94C431.91,186.15,432.16,186.02,432.47,186.2z"/>
				</g>
				<g id="XMLID_3196_">
					<path id="XMLID_3197_" class="st12" d="M429.71,209.01l15.38,8.87c0.31,0.18,0.56,0.6,0.56,0.94s-0.25,0.46-0.56,0.29
						l-15.38-8.87c-0.31-0.18-0.56-0.6-0.56-0.94C429.15,208.96,429.4,208.83,429.71,209.01z"/>
				</g>
				<g id="XMLID_3194_">
					<path id="XMLID_3195_" class="st12" d="M438.59,219.04l15.38,8.87c0.31,0.18,0.56,0.6,0.56,0.94s-0.25,0.46-0.56,0.29
						l-15.38-8.87c-0.31-0.18-0.56-0.6-0.56-0.94C438.02,218.99,438.27,218.86,438.59,219.04z"/>
				</g>
				<g id="XMLID_3094_">
					<path id="XMLID_3193_" class="st12" d="M447.28,219.15l6.69,3.87c0.31,0.18,0.56,0.6,0.56,0.94c0,0.34-0.25,0.46-0.56,0.29
						l-6.69-3.87c-0.31-0.18-0.56-0.6-0.56-0.94C446.71,219.09,446.96,218.97,447.28,219.15z"/>
				</g>
				<g id="XMLID_2998_">
					<path id="XMLID_2999_" class="st1" d="M447.28,238.49l6.69,3.87c0.31,0.18,0.56,0.6,0.56,0.94c0,0.34-0.25,0.46-0.56,0.29
						l-6.69-3.87c-0.31-0.18-0.56-0.6-0.56-0.94C446.71,238.44,446.96,238.31,447.28,238.49z"/>
				</g>
				<g id="XMLID_2995_">
					<path id="XMLID_2997_" class="st4" d="M423.37,185.82l15.38,8.87c0.31,0.18,0.56,0.6,0.56,0.94c0,0.34-0.25,0.46-0.56,0.28
						l-15.38-8.87c-0.31-0.18-0.56-0.6-0.56-0.94C422.81,185.77,423.06,185.64,423.37,185.82z"/>
					<path id="XMLID_2996_" class="st15" d="M423.37,185.82l15.38,8.87c0.31,0.18,0.56,0.6,0.56,0.94c0,0.34-0.25,0.46-0.56,0.28
						l-15.38-8.87c-0.31-0.18-0.56-0.6-0.56-0.94C422.81,185.77,423.06,185.64,423.37,185.82z"/>
				</g>
				<g id="XMLID_2918_">
					<path id="XMLID_2922_" class="st4" d="M440.93,195.96l6.69,3.87c0.31,0.18,0.56,0.6,0.56,0.94c0,0.34-0.25,0.46-0.56,0.29
						l-6.69-3.87c-0.31-0.18-0.56-0.6-0.56-0.94C440.37,195.9,440.62,195.78,440.93,195.96z"/>
					<path id="XMLID_2919_" class="st15" d="M440.93,195.96l6.69,3.87c0.31,0.18,0.56,0.6,0.56,0.94c0,0.34-0.25,0.46-0.56,0.29
						l-6.69-3.87c-0.31-0.18-0.56-0.6-0.56-0.94C440.37,195.9,440.62,195.78,440.93,195.96z"/>
				</g>
			</g>
		</g>
		<g id="Mouse_2_">
			<path class="st8" d="M336.12,251.91l9.42,5.44c2.97,1.71,7.63,1.47,10.4-0.55l15.55-11.35c2.77-2.02,2.62-5.05-0.35-6.77
				l-4.73-2.74c-2.97-1.72-7.86-1.87-10.93-0.33l-19.19,10.41C333.22,247.55,333.14,250.19,336.12,251.91z"/>
			<path class="st2" d="M371.74,240.51l-10.76,8.41l-7.94,6.21c-0.77,0.36-1.65,0.56-2.53,0.61c-1.34,0.07-2.71-0.19-3.76-0.79
				l-8.43-4.87c0,0-0.01,0-0.01-0.01c-0.02-0.01-0.03-0.02-0.05-0.03c-2.96-1.72-3.66-5.72-1.7-8.53c0.08-0.12,0.16-0.23,0.25-0.34
				c1.6-2.16,3.99-3.73,6.78-4.3l4.27-0.86c6.92-1.4,12.6-2.09,13.25-1.64l10.57,6.12C371.71,240.49,371.73,240.5,371.74,240.51z"/>
			<path class="st4" d="M365.73,245.22l0.6-0.47l-9.49-5.48l8.3-2.57c-0.29-0.17-0.57-0.33-0.84-0.48l-8.3,2.57l-5.66-3.27
				c-0.35,0.07-0.71,0.13-1.07,0.2L365.73,245.22z"/>
			<path class="st9" d="M353.98,254.62c0.01-0.01,0.04-0.02,0.05-0.04c0-0.01,0.01-0.01,0.01-0.01l7.55-5.45l10.2-7.37v-1.16
				c0-0.04-0.01-0.06-0.05-0.09c-0.01-0.01-0.04-0.02-0.06-0.02c-0.76-0.26-5.18,1.07-10.52,3.19l-3.54,1.4
				c-1.11,0.43-2.12,1.04-3.02,1.79c-2.55,2.1-4.09,5.27-4.09,8.68v0.19c0.88-0.05,1.76-0.25,2.53-0.61L353.98,254.62z"/>
		</g>
	</g>
</g>
<g id="Plant">
	<g id="Pot_1_">
		<g id="XMLID_3653_">
			<g id="XMLID_3654_">
				<g id="XMLID_3655_">
					<g id="XMLID_3717_">
						<path id="XMLID_3718_" class="st4" d="M372.7,405.51c-10.38-10.71-16.47-54.29-6.35-62.78h51.5
							c10.12,8.49,4.03,52.06-6.34,62.77c-0.09,0.1-0.19,0.2-0.28,0.29c-0.12,0.12-0.24,0.24-0.36,0.35
							c-0.29,0.29-0.6,0.57-0.94,0.84c-0.08,0.07-0.17,0.13-0.25,0.2c-0.25,0.2-0.51,0.4-0.78,0.6c-0.44,0.32-0.89,0.61-1.34,0.87
							c-8.54,4.98-22.38,4.98-30.91,0l0,0l0,0c-0.46-0.26-0.91-0.55-1.35-0.87c-0.26-0.18-0.49-0.37-0.73-0.56
							c-0.1-0.08-0.2-0.16-0.31-0.24c-0.32-0.27-0.62-0.54-0.9-0.81c-0.14-0.13-0.28-0.27-0.41-0.41
							C372.86,405.68,372.77,405.6,372.7,405.51z"/>
					</g>
					<g id="XMLID_3668_" class="st6">
						<path id="XMLID_3669_" class="st12" d="M372.7,405.51c-10.38-10.71-16.47-54.29-6.35-62.78h51.5
							c10.12,8.49,4.03,52.06-6.34,62.77c-0.09,0.1-0.19,0.2-0.28,0.29c-0.12,0.12-0.24,0.24-0.36,0.35
							c-0.29,0.29-0.6,0.57-0.94,0.84c-0.08,0.07-0.17,0.13-0.25,0.2c-0.25,0.2-0.51,0.4-0.78,0.6c-0.44,0.32-0.89,0.61-1.34,0.87
							c-8.54,4.98-22.38,4.98-30.91,0l0,0l0,0c-0.46-0.26-0.91-0.55-1.35-0.87c-0.26-0.18-0.49-0.37-0.73-0.56
							c-0.1-0.08-0.2-0.16-0.31-0.24c-0.32-0.27-0.62-0.54-0.9-0.81c-0.14-0.13-0.28-0.27-0.41-0.41
							C372.86,405.68,372.77,405.6,372.7,405.51z"/>
					</g>
					<g id="XMLID_3666_">
						<path id="XMLID_3667_" class="st4" d="M413.38,339.31c11.75,6.86,11.75,17.98,0,24.85c-11.75,6.86-30.8,6.86-42.56,0
							c-11.75-6.86-11.75-17.98,0-24.85C382.57,332.45,401.63,332.45,413.38,339.31z"/>
					</g>
					<g id="XMLID_3664_" class="st20">
						<path id="XMLID_3665_" class="st12" d="M413.38,339.31c11.75,6.86,11.75,17.98,0,24.85c-11.75,6.86-30.8,6.86-42.56,0
							c-11.75-6.86-11.75-17.98,0-24.85C382.57,332.45,401.63,332.45,413.38,339.31z"/>
					</g>
					<g id="XMLID_3662_">
						<path id="XMLID_3663_" class="st4" d="M407.73,342.61c8.63,5.04,8.63,13.21,0,18.25c-8.63,5.04-22.62,5.04-31.25,0
							c-8.63-5.04-8.63-13.21,0-18.25C385.1,337.57,399.1,337.57,407.73,342.61z"/>
					</g>
					<g id="XMLID_3660_" class="st21">
						<path id="XMLID_3661_" d="M407.73,342.61c8.63,5.04,8.63,13.21,0,18.25c-8.63,5.04-22.62,5.04-31.25,0
							c-8.63-5.04-8.63-13.21,0-18.25C385.1,337.57,399.1,337.57,407.73,342.61z"/>
					</g>
					<g id="XMLID_3656_">
						<path id="XMLID_3659_" class="st0" d="M376.47,351.27c8.63-5.04,22.62-5.04,31.25,0c2.4,1.4,4.1,3.04,5.17,4.79
							c-1.07,1.75-2.77,3.39-5.17,4.79c-8.63,5.04-22.62,5.04-31.25,0c-2.4-1.4-4.1-3.04-5.17-4.79
							C372.37,354.31,374.08,352.67,376.47,351.27z"/>
					</g>
				</g>
			</g>
		</g>
		<g id="Plants_20_">
			<g id="XMLID_3595_">
				<g id="XMLID_3645_">
					<path id="XMLID_3652_" class="st4" d="M387.88,329.28c-0.58-1.17-1.06-2.39-1.31-3.76c-0.58-3.14,0.21-6.73,2.74-8.67
						c1.01-0.77,2.33-1.34,2.75-2.53c0.24-0.66,0.15-1.38,0.03-2.07c-0.47-2.68-1.38-5.44-0.63-8.05c0.69-2.42,2.72-4.27,4.99-5.35
						c2.27-1.08,4.8-1.49,7.28-1.9c1.32-0.22,2.68-0.45,3.85-1.1c1.44-0.8,1.89-2.23,2.78-3.48c0.99-1.37,2.27-2.65,3.53-3.77
						c2.62-2.34,5.91-4.27,9.54-4.11c7.57,0.33,7.36,6.85,5.17,11.8c-2.19,4.94-2.76,6.55,1.97,11.7c4.73,5.15,4.74,11.49-0.9,15.05
						c-5.65,3.55-9.32,4.02-7.09,10.86c2,6.11,3.23,11.32-2.41,17.85c-3.65,4.22-8.64,7.23-14.88,6.97c-1.77-0.07-5.66-0.89-7.3-1.7
						c-1.72-0.85-0.56-2.19-1.14-3.88c-1.25-3.64-2.49-7.28-3.74-10.92c-0.97-2.82-1.7-5.95-2.97-8.62
						C389.43,332.08,388.59,330.71,387.88,329.28z"/>
				</g>
				<g id="XMLID_3643_" class="st22">
					<path id="XMLID_3644_" d="M387.88,329.28c-0.58-1.17-1.06-2.39-1.31-3.76c-0.58-3.14,0.21-6.73,2.74-8.67
						c1.01-0.77,2.33-1.34,2.75-2.53c0.24-0.66,0.15-1.38,0.03-2.07c-0.47-2.68-1.38-5.44-0.63-8.05c0.69-2.42,2.72-4.27,4.99-5.35
						c2.27-1.08,4.8-1.49,7.28-1.9c1.32-0.22,2.68-0.45,3.85-1.1c1.44-0.8,1.89-2.23,2.78-3.48c0.99-1.37,2.27-2.65,3.53-3.77
						c2.62-2.34,5.91-4.27,9.54-4.11c7.57,0.33,7.36,6.85,5.17,11.8c-2.19,4.94-2.76,6.55,1.97,11.7c4.73,5.15,4.74,11.49-0.9,15.05
						c-5.65,3.55-9.32,4.02-7.09,10.86c2,6.11,3.23,11.32-2.41,17.85c-3.65,4.22-8.64,7.23-14.88,6.97c-1.77-0.07-5.66-0.89-7.3-1.7
						c-1.72-0.85-0.56-2.19-1.14-3.88c-1.25-3.64-2.49-7.28-3.74-10.92c-0.97-2.82-1.7-5.95-2.97-8.62
						C389.43,332.08,388.59,330.71,387.88,329.28z"/>
				</g>
				<g id="XMLID_3641_">
					<path id="XMLID_3642_" class="st12" d="M398.18,356.97c0.22-0.08,0.38-0.29,0.37-0.54c-0.32-37.42,20.3-59.76,20.51-59.98
						c0.21-0.23,0.2-0.58-0.02-0.8c-0.22-0.22-0.58-0.21-0.79,0.02c-0.21,0.22-21.14,22.87-20.82,60.76c0,0.31,0.25,0.56,0.56,0.56
						C398.06,357,398.12,356.99,398.18,356.97z"/>
				</g>
				<g id="XMLID_3598_">
					<path id="XMLID_3640_" class="st12" d="M404.18,322.17c0.04-0.01,0.08-0.03,0.11-0.05c6.71-4.22,18.69-7.37,18.8-7.41
						c0.3-0.08,0.48-0.38,0.4-0.69c-0.08-0.3-0.38-0.48-0.68-0.41c-0.5,0.13-12.26,3.23-19.11,7.54c-0.26,0.16-0.34,0.51-0.18,0.78
						C403.67,322.16,403.94,322.25,404.18,322.17z"/>
				</g>
				<g id="XMLID_3596_">
					<path id="XMLID_3597_" class="st12" d="M406.26,317.04c0.01,0,0.02-0.01,0.03-0.01c0.28-0.12,0.42-0.45,0.3-0.73
						c-2.35-5.8-6.03-10.23-6.19-10.41c-0.2-0.24-0.55-0.27-0.79-0.07c-0.23,0.2-0.26,0.56-0.06,0.79
						c0.04,0.04,3.73,4.48,6.01,10.11C405.67,317,405.98,317.14,406.26,317.04z"/>
				</g>
			</g>
			<g id="XMLID_3098_">
				<path id="XMLID_3594_" class="st4" d="M392.92,361.03c0,0-7,2.65-16.43,0.61c-9.43-2.04-15.19-10.84-15.19-10.84
					s10.2-4.08,16.14-4.48c0,0-9.23-1.57-17.86,0.38c0,0-5.46-2.03-4.42-11.25c0,0,5.14-3.78,16.96-2.3c0,0-5.92-4.23-16.31-5.48
					c-0.82,0.01,0.29-12,1.28-17.35c0.99-5.35,2.95-4.52,7.2-4.06c4.25,0.46,16.81,3.32,18.4,6.4c1.59,3.08,0.04,10.93,0.04,10.93
					s3.45-4.3,3.47-10.28c0,0,4.73,1.73,7.25,3.96c2.53,2.23,3.79,4.04,4.52,5.66c-0.59,4.21-2.57,10.64-5.35,14.23
					c0,0,6.26-4.04,7.69-11.49c0,0,5.01,6.4,4.96,14.65C405.22,349.75,401.03,356.74,392.92,361.03z"/>
				<path id="XMLID_3719_" class="st23" d="M392.92,361.03c0,0-7,2.65-16.43,0.61c-9.43-2.04-15.19-10.84-15.19-10.84
					s10.2-4.08,16.14-4.48c0,0-9.23-1.57-17.86,0.38c0,0-5.46-2.03-4.42-11.25c0,0,5.14-3.78,16.96-2.3c0,0-5.92-4.23-16.31-5.48
					c-0.82,0.01,0.29-12,1.28-17.35c0.99-5.35,2.95-4.52,7.2-4.06c4.25,0.46,16.81,3.32,18.4,6.4c1.59,3.08,0.04,10.93,0.04,10.93
					s3.45-4.3,3.47-10.28c0,0,4.73,1.73,7.25,3.96c2.53,2.23,3.79,4.04,4.52,5.66c-0.59,4.21-2.57,10.64-5.35,14.23
					c0,0,6.26-4.04,7.69-11.49c0,0,5.01,6.4,4.96,14.65C405.22,349.75,401.03,356.74,392.92,361.03z"/>
				<g id="XMLID_3578_">
					<path id="XMLID_3579_" class="st12" d="M394.17,360.19c-0.19-0.07-0.32-0.25-0.34-0.46c-1.43-17.86-21.4-45.75-30.24-51.35
						c-0.25-0.16-0.33-0.49-0.17-0.75c0.16-0.25,0.49-0.33,0.74-0.17c8.98,5.69,29.29,34.04,30.73,52.18
						c0.02,0.3-0.2,0.56-0.49,0.58C394.32,360.23,394.24,360.22,394.17,360.19z"/>
				</g>
			</g>
		</g>
	</g>
</g>
<g id="Character">
	<g id="Character_1_">
		<g id="XMLID_179_">
			<g id="XMLID_183_">
				<g id="XMLID_191_">
					<path id="XMLID_192_" class="st24" d="M213.49,349.03c-0.04-0.2-3.21-11.79-3.21-11.79s1.04,1.07,7.75-0.7
						c3.41-0.9,7.29-3.06,7.29-3.06l1.91,8.48c1.78,3.26,7.7,1.76,14.19,1.02c1.09-0.12,2.21-0.31,3.33-0.5l0.07-0.01
						c3.5-0.19,7.02,1.91,3.38,4.9c-3.64,2.99-9.64,4.12-15.18,5.12C226.36,353.68,214.68,355.63,213.49,349.03z"/>
				</g>
				<g id="XMLID_184_">
					<path id="XMLID_190_" class="st9" d="M260.04,348c0,0,0.7,1.34,0.48,3.56c-0.13,1.29-3.32,5.67-8.96,8.35
						c-5.64,2.68-12.62,2.86-15.89,3.8c-3.27,0.94-6.26,2.82-10.11,3.75c-3.97,0.97-7.66,1.43-11.51-1.11
						c-0.71-1.1-1.5-3.63-1.27-3.87C213.4,361.83,260.04,348,260.04,348z"/>
					<path id="XMLID_189_" class="st4" d="M228.25,343.08c2.48,1.72,7.62,0.52,13.17-0.11c5.23-0.6,11.13-2.44,14.68-1.2
						c3.56,1.23,6.53,5.42,1.72,10.79c-1.39,1.55-4.33,4.29-6.69,5.13c-5.98,2.14-11.34,2.31-15.18,3.26
						c-5,1.23-7.74,3.45-12.36,3.99c-5.99,0.69-9.78-0.84-10.81-2.44c-1.04-1.6-2-14.49,0.57-14.22c0,0,1.08,4.17,10.86,0.12
						C228.49,346.62,228.42,344.01,228.25,343.08z"/>
					<path id="XMLID_188_" class="st7" d="M228.25,343.08c2.48,1.72,7.62,0.52,13.17-0.11c5.23-0.6,11.13-2.44,14.68-1.2
						c3.56,1.23,6.53,5.42,1.72,10.79c-1.39,1.55-4.33,4.29-6.69,5.13c-5.98,2.14-11.34,2.31-15.18,3.26
						c-5,1.23-7.74,3.45-12.36,3.99c-5.99,0.69-9.78-0.84-10.81-2.44c-1.04-1.6-2-14.49,0.57-14.22c0,0,1.08,4.17,10.86,0.12
						C228.49,346.62,228.42,344.01,228.25,343.08z"/>
					<path id="XMLID_187_" class="st25" d="M244.85,349.99c0,0-0.56-5.45-4.58-6.89c0,0-1.3-0.6-2.22,0.29c0,0,3.73,0.54,4.96,6.93
						c0,0,0.19,0.42,1.01,0.27C244.29,350.55,244.89,350.44,244.85,349.99z"/>
					<path id="XMLID_186_" class="st25" d="M234.62,343.82c0,0-0.01-0.18,0.94-0.36c0.68-0.13,1.1,0.12,1.1,0.12s3,1.3,3.56,6.99
						c0,0-0.02,0.69-0.92,0.88c-0.9,0.19-1.07-0.56-1.07-0.56S237.61,344.91,234.62,343.82z"/>
					<path id="XMLID_185_" class="st25" d="M231.4,343.94c0,0,0.17-0.34,0.87-0.34c0.89,0,1.1,0.35,1.1,0.35s2.14,2.19,2.16,6.95
						c0,0,0.09,0.81-1.03,0.89c-1.12,0.08-0.96-0.83-0.96-0.83S233.15,344.9,231.4,343.94z"/>
				</g>
			</g>
			<g id="XMLID_180_">
				<g id="XMLID_181_">
					<path id="XMLID_182_" class="st2" d="M209.35,270.2c4.9,14.73,17.9,65.46,17.9,65.46s-8.46,7.6-17.64,4.14l-21.87-63.17
						L209.35,270.2z"/>
				</g>
			</g>
		</g>
		<g id="XMLID_166_">
			<g id="XMLID_169_">
				<g id="XMLID_177_">
					<path id="XMLID_178_" class="st24" d="M247.14,365.4c-1-1.49-4.76-11.8-4.76-11.8s3.93,2.24,10.67,0.64
						c3.43-0.82,6.64-4.54,6.64-4.54l2.88,9.92c1.7,3.31,7.21,2.21,13.71,1.63c1.09-0.1,2.22-0.25,3.34-0.42l0.07-0.01
						c3.5-0.11,6.97,2.08,3.25,4.98c-3.71,2.9-9.74,3.88-15.3,4.74C260.96,371.58,250.89,370.97,247.14,365.4z"/>
				</g>
				<g id="XMLID_170_">
					<path id="XMLID_176_" class="st9" d="M297.56,365.09c0,0,0.72,1.46,0.43,3.84c-0.17,1.38-3.71,6-9.84,8.73
						c-6.13,2.73-13.62,2.74-17.16,3.66c-3.53,0.92-6.79,2.86-10.95,3.76c-4.28,0.93-8.26,1.34-12.33-1.49
						c-0.73-1.2-1.51-3.93-1.26-4.19C247.12,378.71,297.56,365.09,297.56,365.09z"/>
					<path id="XMLID_175_" class="st4" d="M263.63,358.87c0.4,0.27,0.81,0.55,1.23,0.76c0.44,0.23,0.87,0.22,1.36,0.28
						c1.09,0.13,2.18,0.14,3.27,0.08c2.75-0.14,5.47-0.55,8.21-0.79c5.63-0.5,12.01-2.32,15.8-0.9c3.79,1.42,7.24,5.98,1.94,11.61
						c-1.53,1.63-4.69,4.38-7.11,5.39c-6.29,2.63-12.82,2.14-16.97,3.06c-5.4,1.19-8.4,3.5-13.38,3.95
						c-6.45,0.59-10.47-1.16-11.54-2.91c-0.6-0.97,0.07-6.03-0.74-9.95c-0.7-3.38-0.51-5.68,0.7-5.53c0.19,0.44,0.64,0.83,0.94,1.19
						c0.39,0.48,0.88,0.85,1.43,1.13c0.76,0.39,1.59,0.6,2.42,0.81c1.47,0.37,2.98,0.73,4.49,0.62c0.43-0.03,0.88-0.11,1.22-0.39
						c0.44-0.36,0.59-0.96,0.71-1.52c0.11-0.5,0.21-0.99,0.32-1.49c0.06-0.27,0.12-0.55,0.27-0.78c0.18-0.27,0.48-0.45,0.77-0.61
						c0.91-0.51,1.88-1,2.46-1.87c0.45-0.68,0.59-1.51,0.72-2.31c0.02-0.14,0.05-0.29,0.16-0.38c0.18-0.15,0.45-0.02,0.65,0.1
						C263.18,358.57,263.4,358.72,263.63,358.87z"/>
					<path id="XMLID_174_" class="st7" d="M263.63,358.87c0.4,0.27,0.81,0.55,1.23,0.76c0.44,0.23,0.87,0.22,1.36,0.28
						c1.09,0.13,2.18,0.14,3.27,0.08c2.75-0.14,5.47-0.55,8.21-0.79c5.63-0.5,12.01-2.32,15.8-0.9c3.79,1.42,7.24,5.98,1.94,11.61
						c-1.53,1.63-4.69,4.38-7.11,5.39c-6.29,2.63-12.82,2.14-16.97,3.06c-5.4,1.19-8.4,3.5-13.38,3.95
						c-6.45,0.59-10.47-1.16-11.54-2.91c-0.6-0.97,0.07-6.03-0.74-9.95c-0.7-3.38-0.51-5.68,0.7-5.53c0.19,0.44,0.64,0.83,0.94,1.19
						c0.39,0.48,0.88,0.85,1.43,1.13c0.76,0.39,1.59,0.6,2.42,0.81c1.47,0.37,2.98,0.73,4.49,0.62c0.43-0.03,0.88-0.11,1.22-0.39
						c0.44-0.36,0.59-0.96,0.71-1.52c0.11-0.5,0.21-0.99,0.32-1.49c0.06-0.27,0.12-0.55,0.27-0.78c0.18-0.27,0.48-0.45,0.77-0.61
						c0.91-0.51,1.88-1,2.46-1.87c0.45-0.68,0.59-1.51,0.72-2.31c0.02-0.14,0.05-0.29,0.16-0.38c0.18-0.15,0.45-0.02,0.65,0.1
						C263.18,358.57,263.4,358.72,263.63,358.87z"/>
					<path id="XMLID_173_" class="st25" d="M281.2,366.83c0,0-0.46-5.86-4.74-7.51c0,0-1.38-0.67-2.39,0.25c0,0,3.99,0.68,5.14,7.57
						c0,0,0.2,0.46,1.07,0.32C280.58,367.42,281.23,367.32,281.2,366.83z"/>
					<path id="XMLID_172_" class="st25" d="M270.38,359.94c0,0,0-0.19,1.02-0.36c0.74-0.12,1.18,0.16,1.18,0.16s3.19,1.47,3.64,7.6
						c0,0-0.04,0.74-1.02,0.91c-0.97,0.18-1.14-0.63-1.14-0.63S273.57,361.18,270.38,359.94z"/>
					<path id="XMLID_171_" class="st25" d="M266.92,359.98c0,0,0.19-0.36,0.95-0.34c0.96,0.03,1.17,0.4,1.17,0.4
						s2.24,2.41,2.14,7.51c0,0,0.07,0.87-1.13,0.93c-1.21,0.06-1.01-0.91-1.01-0.91S268.78,361.05,266.92,359.98z"/>
				</g>
			</g>
			<g id="XMLID_167_">
				<path id="XMLID_168_" class="st3" d="M243.84,287.59c3.86,11.87,13.71,45.66,18.22,63.04c0,0-8.09,7.27-18.5,6.64l-25.09-65.06
					l9.99-6.18L243.84,287.59z"/>
			</g>
		</g>
		<g id="XMLID_144_">
			<g id="XMLID_164_">
				<path id="XMLID_165_" class="st3" d="M161.23,450.03c0.9,0,1.63-0.73,1.63-1.63V343.81c0-0.9-0.73-1.63-1.63-1.63
					c-0.9,0-1.63,0.73-1.63,1.63V448.4C159.6,449.3,160.33,450.03,161.23,450.03z"/>
			</g>
			<g id="XMLID_162_">
				<path id="XMLID_163_" class="st3" d="M96.52,411.96c0.65,0,1.26-0.39,1.51-1.03l32.07-81.18c0.33-0.84-0.08-1.78-0.92-2.11
					c-0.83-0.33-1.78,0.08-2.11,0.92l-32.07,81.18c-0.33,0.84,0.08,1.78,0.92,2.11C96.12,411.92,96.32,411.96,96.52,411.96z"/>
			</g>
			<g id="XMLID_160_">
				<path id="XMLID_161_" class="st3" d="M100.37,402.21c0.43,0,0.86-0.17,1.18-0.51l59.68-63.15l59.57,62.88
					c0.62,0.65,1.65,0.68,2.3,0.06c0.65-0.62,0.68-1.65,0.06-2.3l-60.75-64.13c-0.31-0.32-0.73-0.51-1.18-0.51c0,0,0,0,0,0
					c-0.45,0-0.87,0.18-1.18,0.51l-60.86,64.4c-0.62,0.65-0.59,1.68,0.07,2.3C99.57,402.06,99.97,402.21,100.37,402.21z"/>
			</g>
			<g id="XMLID_158_">
				<path id="XMLID_159_" class="st3" d="M225.94,411.96c0.2,0,0.4-0.04,0.6-0.11c0.84-0.33,1.25-1.27,0.92-2.11l-32.07-81.18
					c-0.33-0.84-1.28-1.25-2.11-0.92c-0.84,0.33-1.25,1.27-0.92,2.11l32.07,81.18C224.68,411.57,225.29,411.96,225.94,411.96z"/>
			</g>
			<g id="XMLID_156_">
				<path id="XMLID_157_" class="st4" d="M226.72,307.94c1.17-6.56-4.18-11.68-14.23-18.47c-10.06-6.79-22.91-13.51-29.14-16.37
					c-8.41-3.86-17.02-3.51-27.79,2.03c-14.96,7.69-59.99,34.99-59.99,34.99s67.32,38.01,80.27,36.3
					c12.95-1.7,45.33-22.76,47.89-30.17C226.3,308.85,226.72,307.94,226.72,307.94z"/>
			</g>
			<g id="XMLID_154_" class="st7">
				<path id="XMLID_155_" d="M226.72,307.94c1.17-6.56-4.18-11.68-14.23-18.47c-10.06-6.79-22.91-13.51-29.14-16.37
					c-8.41-3.86-17.02-3.51-27.79,2.03c-14.96,7.69-59.99,34.99-59.99,34.99s67.32,38.01,80.27,36.3
					c12.95-1.7,45.33-22.76,47.89-30.17C226.3,308.85,226.72,307.94,226.72,307.94z"/>
			</g>
			<g id="XMLID_152_">
				<path id="XMLID_153_" class="st4" d="M169.35,338.43c9.66,8.75,19.77,1.22,35.75-9.15c18.09-11.74,21.63-21.34,21.63-21.34
					s0,7.2-1.35,10.57c-1.35,3.37-4.27,7.2-17.32,16.19c-13.04,9-22.49,13.49-31.26,15.16l-6.92-0.96"/>
			</g>
			<path id="XMLID_151_" class="st6" d="M205.09,329.28c18.09-11.74,21.63-21.34,21.63-21.34s0,7.2-1.35,10.57
				c-1.35,3.37-4.27,7.2-17.32,16.19c-13.04,9-22.49,13.49-31.26,15.16l-6.92-0.96l-0.54-10.47
				C179.01,347.18,189.11,339.65,205.09,329.28z"/>
			<g id="XMLID_149_">
				<path id="XMLID_150_" class="st4" d="M99.04,399.22l-4.95,11.42c-0.03,0.1-0.05,0.2-0.05,0.3c-0.01,0.07-0.01,0.14-0.01,0.21
					c0.03,0.24,0.31,0.56,0.63,0.76c0.72,0.46,1.92,0.52,2.68,0.13c0.28-0.15,0.46-0.33,0.55-0.52c0-0.01,0-0.01,0.01-0.02
					l0.04-0.16l4.6-10.71L99.04,399.22z"/>
			</g>
			<g id="XMLID_147_">
				<path id="XMLID_148_" class="st4" d="M223.73,399.7l4.24,11.19c0.03,0.1,0.04,0.19,0.04,0.29c0.01,0.06,0.01,0.13,0,0.2
					c-0.04,0.23-0.33,0.52-0.64,0.71c-0.71,0.41-1.87,0.41-2.58,0c-0.26-0.15-0.43-0.34-0.5-0.53c0-0.01,0-0.01-0.01-0.02
					l-0.03-0.15l-3.93-10.49L223.73,399.7z"/>
			</g>
			<g id="XMLID_145_">
				<path id="XMLID_146_" class="st4" d="M159.35,440.3l0,9.26c0,0.28,0.18,0.55,0.55,0.77c0.73,0.42,1.92,0.42,2.65,0
					c0.37-0.21,0.55-0.49,0.55-0.77v-9.26C161.85,439.67,160.6,439.67,159.35,440.3z"/>
			</g>
		</g>
		<g>
			<g>
				<g id="XMLID_125_">
					<g id="XMLID_128_">
						<path id="XMLID_143_" class="st2" d="M122.54,268.72c3.83,4.47,38.72-5.57,47.97-6.83c14.91-2.03,27.05-3.51,32.1-1.92
							c5.06,1.59,7.21,4.17,8.76,10.23c1.83,7.15,2.78,10.79,2.78,10.79s-24.77,9.51-44.3,11.8
							C150.31,295.07,122.54,268.72,122.54,268.72z"/>
					</g>
					<g id="XMLID_126_">
						<path id="XMLID_127_" class="st3" d="M116.03,275.27c-3.87,14.74-7.34,31.88,1.61,41.26c6.03,6.32,36.31,22.74,55.85,16.27
							c19.25-6.37,59.1-35.96,63.1-38.94c4.01-2.99,7.64-5.01,7.25-6.28c-5.38-17.84-13.23-19.24-27.8-16.03
							c-17.81,3.92-56.92,19.88-56.92,19.88L116.03,275.27z"/>
					</g>
				</g>
			</g>
			<g>
				<g id="XMLID_122_">
					<g id="XMLID_123_">
						<polygon id="XMLID_124_" class="st24" points="204.52,180.52 191.08,195.71 169.38,185.42 184.55,164.42 						"/>
					</g>
				</g>
				<g id="XMLID_117_">
					<g id="XMLID_120_">
						<path id="XMLID_121_" class="st26" d="M221.19,151.66c0,0,5.5,7.94,4.91,8.75c-0.59,0.81-4.48,1.61-4.48,1.61L221.19,151.66z"
							/>
					</g>
					<circle class="st27" cx="221.15" cy="150.33" r="5.98"/>
					<g id="XMLID_118_">
						<path id="XMLID_119_" class="st24" d="M205.92,129.68c10.81,2.02,14.02,6.68,15.43,23.75c1.47,17.83-0.23,23.49-2.52,25.95
							c-1.55,1.66-10.34,2.15-14.81,1.03c-5.59-1.4-18.25-5.57-24.34-14.41c-7.16-10.41-9.3-24.69-2.03-30.73
							C187.88,126.75,201.52,128.86,205.92,129.68z"/>
					</g>
					<path class="st26" d="M204.52,180.52c4.65,1.05,11.73,0.42,13.83-0.79c-0.2,0.05-3.53,0.92-7.82-0.29
						c-4.43-1.24-7.17-3.16-7.17-3.16L204.52,180.52z"/>
				</g>
				<g id="XMLID_110_">
					<g id="XMLID_114_">
						<g id="XMLID_115_">
							<path id="XMLID_116_" class="st9" d="M223.35,136.67c-0.01,0.01-0.02,0.01-0.03,0.02c-3.02,2.08-6.7,2.95-10.32,3.51
								c0.29,2.89-0.63,5.76-1.53,8.52c-0.62,1.91-2.87,7.92-5.32,4.62c-1.77-2.38-3.38-4.55-6.76-3.97
								c-5.58,0.96-6.17,8.12-2.55,12.37c3.63,4.26,6.88,2.52,6.88,2.52s0.51,7.69-3.54,13.13c0,0-6.05,3.72-14.55,0.92
								c-5.36-1.77-13.1-8.53-15.95-13.81c-7.85-14.52-7.89-28.44,1.63-32.72c0.88-6.96,6.27-10.2,12.47-11.77
								c8.59-2.18,17.51,3.21,25.81-0.35c1.75-0.75,3.36-1.81,5.15-2.46c1.01-0.36,2.2-0.57,3.09,0.01
								c0.77,0.51,1.11,1.46,1.32,2.36c0.4,1.65,0.55,3.5-0.33,4.96c1.25-0.6,2.53-1.21,3.9-1.44c1.37-0.22,2.88-0.01,3.95,0.89
								c0.99,0.84,1.46,2.15,1.58,3.44C228.58,131.07,226.35,134.58,223.35,136.67z"/>
						</g>
					</g>
					<g id="XMLID_111_">
						<g id="XMLID_112_">
							<path id="XMLID_113_" class="st9" d="M171.19,134.12l-6.52-3.65c1.01-1.8,3.28-2.45,5.09-1.44
								C171.56,130.04,172.2,132.32,171.19,134.12z"/>
						</g>
					</g>
				</g>
				<line class="st28" x1="206.15" y1="153.34" x2="227.05" y2="149.44"/>
			</g>
			<path class="st24" d="M249.86,189.4c-0.56-0.94-1.81-1.13-2.85-1.49c-1.92-0.67-3.42-2.2-5.27-3.05
				c-2.06-0.94-4.45-0.97-6.66-0.45c-0.76,0.18-1.5,0.42-2.22,0.71c-1.38,0.55-2.7,1.26-3.97,2.01c-5.3,3.14-9.28,10.22-14.48,13.47
				c-1.94,1.21-3.75,2.31-5.54,3.41l12.44,11.09c2.56-2.08,5.01-4,6.13-4.67c3.06-1.82,6.15-1.86,9.59-2.36
				c2.39-0.35,4.71-1.05,7.01-1.76c0.81-0.25,1.72-0.57,2.07-1.35c0.44-0.98-0.33-2.17-1.33-2.56c-1.07-0.42-2.49-0.31-3.64-0.5
				c-0.9-0.14-3.3,0.39-3.83-0.51c-0.28-0.47,0.07-1.06,0.41-1.49c2.16-2.69,4.89-5.57,8.34-6.38c1.07-0.25,2.19-0.51,3.04-1.21
				C249.95,191.63,250.42,190.34,249.86,189.4z"/>
			<path class="st4" d="M175.47,176.99c-13.21-7.21-25.24-2.58-29.57,6.69c-3.92,8.39-12.17,40.84-12.17,40.84
				C137.69,231.96,175.47,176.99,175.47,176.99z"/>
			<g>
				<path class="st4" d="M173.49,179.6l1.98-2.61c-14.91-7.09-28.27,2.22-40.03,20.52c-12.68,19.72-19.33,48.03-19.39,77.91
					c0,0,2.53,13.43,19.5,20.14c18,7.13,43.11,4.11,50.93-14.55c0,0,0.16-18.64,5.83-27.81c3.67-5.94,12.22-19.14,18.58-28.6
					c5.54-8.24,9.84-26.99-1.73-33.85c-3.39-2.01-4.79-2.6-9.41-4.8C189.22,189.43,172.13,183.78,173.49,179.6z"/>
				<path class="st29" d="M173.53,179.67l1.93-2.67c-14.91-7.09-28.27,2.22-40.03,20.52c-12.68,19.72-19.33,48.03-19.39,77.91
					c0,0,2.53,13.43,19.5,20.14c18,7.13,43.11,4.11,50.93-14.55c0,0,0.16-18.64,5.83-27.81c3.67-5.94,12.22-19.14,18.58-28.6
					c5.54-8.24,9.84-26.99-1.73-33.85c-3.39-2.01-4.79-2.6-9.41-4.8C189.22,189.43,172.17,183.85,173.53,179.67z"/>
				<path class="st30" d="M215.7,212.65c0.76-3.59,1.02-7.37,0.46-10.86c0,0,0,0,0,0c-2.71,6.34-6.52,12.2-11.26,17.2
					c-6.07,6.39-13.56,11.37-19.2,18.15c-5.96,7.18-10.25,15.87-15.24,23.71c-2,3.15-4.74,9.22-8.46,9.46
					c-4.54,0.3-8.88-5.24-11.35-9.05c-3.95-6.09-7.34-13.69-12.25-19.03c-4.29-4.67-10.93-10.65-16.77-7.94h0
					c-0.44,1.55-0.85,3.12-1.24,4.71c-0.39,1.6-0.76,3.21-1.09,4.83c-0.01,0.06-0.03,0.12-0.04,0.19c-0.34,1.62-0.65,3.25-0.93,4.88
					c-0.02,0.09-0.03,0.17-0.04,0.26c-0.28,1.62-0.53,3.24-0.75,4.86c-0.97,6.99-1.48,14.16-1.49,21.4c0,0,2.53,13.43,19.5,20.14
					c18,7.13,43.11,4.11,50.93-14.55c0,0,0.16-18.64,5.83-27.81c0.57-0.92,1.27-2.04,2.05-3.27c0,0,0-0.01,0.01-0.01
					c0.04-0.07,0.09-0.14,0.13-0.21c0.65-1.02,1.35-2.13,2.11-3.31c0.05-0.07,0.09-0.14,0.14-0.22c0.02-0.03,0.04-0.06,0.06-0.09
					c1.62-2.53,3.43-5.33,5.31-8.22c0.29-0.44,0.57-0.87,0.86-1.31c1.82-2.78,3.66-5.59,5.43-8.24c0.01-0.01,0.01-0.02,0.02-0.03
					c0.6-0.9,1.18-1.76,1.75-2.62c0.24-0.36,0.49-0.73,0.73-1.09c0,0,0-0.01,0-0.01c0.2-0.3,0.4-0.61,0.59-0.94
					c0.06-0.1,0.12-0.2,0.18-0.3c0.14-0.24,0.28-0.49,0.42-0.74c0.06-0.11,0.12-0.22,0.18-0.34c0.15-0.29,0.3-0.58,0.45-0.88
					c0.04-0.08,0.08-0.15,0.11-0.23c0.19-0.39,0.37-0.79,0.55-1.21c0.01-0.02,0.01-0.03,0.02-0.05c0.01-0.02,0.02-0.05,0.03-0.07
					c0.16-0.37,0.31-0.75,0.47-1.14c0.04-0.09,0.07-0.18,0.11-0.28c0.14-0.37,0.27-0.74,0.41-1.11c0.01-0.03,0.02-0.06,0.03-0.09
					c0.01-0.04,0.03-0.08,0.04-0.12c0.24-0.7,0.46-1.41,0.66-2.14c0-0.01,0-0.01,0-0.02c0.2-0.73,0.38-1.47,0.55-2.22
					c0-0.01,0-0.01,0-0.02C215.69,212.7,215.69,212.67,215.7,212.65z"/>
			</g>
			<g>
				<path class="st24" d="M284.89,230.8c-0.93,1.15-2,2.2-3.1,3.2c-4.56,4.13-9.89,6.11-16.09,10.14
					c-5.01,3.25-12.73,7.99-19.24,12.05c-7.32,4.56-16.14,8.27-20.95,9.68c-6.05,1.78-9.43,1.85-13.01-7.84
					c-1.75-4.75-3.14-9.62-4.66-14.46c-2.25-7.19-4.47-14.4-6.64-21.61c0,0-8.04-19.83,9.95-29.79c7.83,4.48,10.81,6.29,13.27,15.67
					c2.94,11.23,7.7,33.38,7.7,33.38c6.36-2.2,12.57-4.92,18.6-7.91c2.28-1.14,5.09-1.92,6.72-3.95c1.11-1.38,2.01-2.91,2.86-4.45
					c0.77-1.38,1.32-2.88,2.16-4.21c1.57-2.45,3.83-4.51,5.91-6.51c0.41-0.39,0.87-0.81,1.43-0.85c0.6-0.04,1.15,0.37,1.45,0.89
					c0.66,1.15,0.05,2.29-0.29,3.47c-0.39,1.35-0.77,2.69-1.16,4.04c4.59-2.72,8.49-6.3,11.48-10.76c0.27-0.41,0.54-0.82,0.91-1.15
					c0.37-0.32,0.85-0.55,1.34-0.49c1.21,0.15,2.4,2.09,2.46,3.2c0.06,1.13-0.19,2.29,0.09,3.39c0.27,1.05,0.98,1.9,1.3,2.93
					c0.32,1,0.58,2.19,0.69,3.24c0.25,2.43-0.61,4.72-1.83,6.79C285.83,229.56,285.38,230.2,284.89,230.8z"/>
				<path class="st4" d="M210.08,191.35c6.86,2.77,11.79,5.9,14.92,16.36c3.14,10.52,6.52,27.24,6.52,27.24s0.06,3.51-8.26,8.42
					c-8.32,4.91-16.11,2.17-16.11,2.17l-6.29-20.2C200.86,225.34,189.72,198.33,210.08,191.35z"/>
			</g>
		</g>
		<g id="XMLID_105_">
			<path id="XMLID_109_" class="st4" d="M169.88,348.91c-5.5-0.28-9.81-4.32-22.9-9.77c-24.16-10.07-42.28-18.12-49.18-30.78
				c-6.9-12.66-11.79-49.18-10.07-65c0.23-2.1,0.64-3.82,1.18-5.24l-1.7-0.25l4.4-3.75l0,0.01c4.51-3.69,11.86-0.4,17.4,2.61
				c15.82,8.61,28.19,16.97,37.97,47.17c7.36,22.72,12.21,43.44,22.36,54.52"/>
			<path id="XMLID_108_" class="st21" d="M88.92,238.12l-1.7-0.25l4.4-3.75l0,0.01c4.51-3.69,11.86-0.4,17.4,2.61
				c15.82,8.61,28.19,16.97,37.97,47.17c7.36,22.72,12.21,43.44,22.36,54.52l0.54,10.47c-5.5-0.28-9.81-4.32-22.9-9.77
				c-24.16-10.07-42.28-18.12-49.18-30.78c-6.9-12.66-11.79-49.18-10.07-65C87.96,241.26,88.37,239.54,88.92,238.12z"/>
			<g id="XMLID_106_">
				<path id="XMLID_107_" class="st4" d="M104.44,240.64c15.82,8.61,28.19,16.97,37.97,47.17c9.78,30.2,15.13,56.88,34.4,62.06
					c0,0-8.71,3.46-35.41-7.83c-8.5-3.59-18.81-10.14-25.58-13.95c-13.27-7.45-21.32-13.55-22.59-15.83
					c-7.01-12.59-11.79-49.18-10.07-65C84.88,231.43,96.51,236.32,104.44,240.64z"/>
			</g>
		</g>
	</g>
</g>
<g id="Speech_Bubble">
</g>
<g id="Text_Boxes">
</g>
</svg>
